<?xml version="1.0" encoding="UTF-8" standalone="no"?>
<!-- Created with Inkscape (http://www.inkscape.org/) -->

<svg
   xmlns:dc="http://purl.org/dc/elements/1.1/"
   xmlns:cc="http://creativecommons.org/ns#"
   xmlns:rdf="http://www.w3.org/1999/02/22-rdf-syntax-ns#"
   xmlns:svg="http://www.w3.org/2000/svg"
   xmlns="http://www.w3.org/2000/svg"
   xmlns:xlink="http://www.w3.org/1999/xlink"
   xmlns:sodipodi="http://sodipodi.sourceforge.net/DTD/sodipodi-0.dtd"
   xmlns:inkscape="http://www.inkscape.org/namespaces/inkscape"
   width="1041"
   height="260"
   id="svg2"
   version="1.1"
   inkscape:version="0.48.2 r9819"
   sodipodi:docname="bthree_logo_font.svg">
  <defs
     id="defs4">
    <linearGradient
       inkscape:collect="always"
       id="linearGradient3861">
      <stop
         style="stop-color:#2271ad;stop-opacity:1;"
         offset="0"
         id="stop3863" />
      <stop
         style="stop-color:#195380;stop-opacity:1"
         offset="1"
         id="stop3865" />
    </linearGradient>
    <linearGradient
       id="linearGradient3853">
      <stop
         style="stop-color:#000000;stop-opacity:1;"
         offset="0"
         id="stop3855" />
      <stop
         style="stop-color:#000000;stop-opacity:1;"
         offset="1"
         id="stop3857" />
    </linearGradient>
    <linearGradient
       inkscape:collect="always"
       xlink:href="#linearGradient3861"
       id="linearGradient3867"
       x1="-64.260475"
       y1="307.33319"
       x2="-64.260475"
       y2="443.5296"
       gradientUnits="userSpaceOnUse" />
    <linearGradient
       inkscape:collect="always"
       xlink:href="#linearGradient3861"
       id="linearGradient3875"
       x1="68.478249"
       y1="307.13748"
       x2="68.478249"
       y2="383.16699"
       gradientUnits="userSpaceOnUse" />
  </defs>
  <sodipodi:namedview
     id="base"
     pagecolor="#ffffff"
     bordercolor="#666666"
     borderopacity="1.0"
     inkscape:pageopacity="0.0"
     inkscape:pageshadow="2"
     inkscape:zoom="0.76"
     inkscape:cx="504.86919"
     inkscape:cy="65.670368"
     inkscape:document-units="px"
     inkscape:current-layer="layer1"
     showgrid="false"
     fit-margin-top="0"
     fit-margin-left="0"
     fit-margin-right="0"
     fit-margin-bottom="0"
     inkscape:window-width="1024"
     inkscape:window-height="546"
     inkscape:window-x="0"
     inkscape:window-y="0"
     inkscape:window-maximized="1" />
  <metadata
     id="metadata7">
    <rdf:RDF>
      <cc:Work
         rdf:about="">
        <dc:format>image/svg+xml</dc:format>
        <dc:type
           rdf:resource="http://purl.org/dc/dcmitype/StillImage" />
        <dc:title></dc:title>
      </cc:Work>
    </rdf:RDF>
  </metadata>
  <g
     inkscape:label="Layer 1"
     inkscape:groupmode="layer"
     id="layer1"
     transform="translate(134.78572,-270.93362)">
    <g
       style="font-size:204px;font-style:normal;font-variant:normal;font-weight:normal;font-stretch:normal;line-height:125%;letter-spacing:0px;word-spacing:0px;color:#000000;fill:#999999;fill-opacity:1;fill-rule:nonzero;stroke:none;stroke-width:1px;marker:none;visibility:visible;display:inline;overflow:visible;enable-background:accumulate;font-family:Baskerville Old Face;-inkscape-font-specification:Baskerville Old Face"
       id="text3050">
      <path
         d="m 165.21989,443.82947 0.29883,-41.13867 2.29102,0 c 2.78905,10.49221 6.10935,18.75978 9.96094,24.80273 7.23825,11.15626 16.33589,16.73438 27.29296,16.73438 7.63667,0 13.94525,-2.55664 18.92579,-7.66993 4.98039,-5.11327 7.47062,-11.58787 7.4707,-19.42382 -8e-5,-3.38669 -0.56453,-6.83981 -1.69336,-10.35938 -1.06257,-3.51949 -2.52351,-6.54097 -4.38281,-9.06445 -1.92585,-2.5898 -4.64851,-5.08003 -8.16797,-7.47071 -3.45319,-2.39056 -8.76568,-5.41205 -15.9375,-9.06445 -6.30864,-3.18743 -11.15629,-5.87688 -14.54297,-8.06836 -3.32034,-2.19133 -6.00979,-4.41594 -8.06836,-6.67383 -5.71095,-6.2421 -8.56642,-13.84561 -8.56641,-22.81054 -1e-5,-5.51162 1.09569,-10.82411 3.28711,-15.9375 2.2578,-5.11316 5.37889,-9.49597 9.36328,-13.14844 7.03903,-6.50768 15.37301,-9.76158 25.00196,-9.76172 3.12104,1.4e-4 6.0097,0.33217 8.66601,0.99609 2.65619,0.5978 6.20892,1.82631 10.65821,3.68555 3.32023,1.32826 5.57804,2.19154 6.77343,2.58984 1.19524,0.33217 2.25774,0.49818 3.1875,0.49805 2.32414,1.3e-4 3.88468,-1.69322 4.68164,-5.08008 l 2.29102,0 0.69727,39.54493 -2.29102,0 c -1.79305,-6.3085 -3.3536,-11.12294 -4.68164,-14.44336 -1.2618,-3.38661 -2.78914,-6.5077 -4.58203,-9.36329 -3.25398,-5.17956 -6.83992,-8.99791 -10.75781,-11.45507 -3.91804,-2.52331 -8.43366,-3.78502 -13.54688,-3.78516 -7.43755,1.4e-4 -13.31449,2.52357 -17.63086,7.57031 -1.793,2.05872 -3.22073,4.48255 -4.2832,7.27149 -0.99613,2.78918 -1.49417,5.57824 -1.49414,8.36718 -3e-5,11.08995 7.13863,20.02158 21.41601,26.79493 l 14.04493,6.77343 c 10.82414,5.11336 18.62686,10.75789 23.4082,16.9336 5.44522,6.9063 8.16787,14.94145 8.16797,24.10547 -1e-4,6.1094 -1.22861,11.95315 -3.68555,17.53125 -3.45321,7.76954 -8.6329,13.7793 -15.53906,18.02929 -6.90632,4.1836 -15.04108,6.27539 -24.4043,6.27539 -8.56645,0 -16.80082,-1.69336 -24.70312,-5.08007 -4.11722,-1.79297 -6.57425,-2.82227 -7.3711,-3.08789 -0.79689,-0.26562 -1.69338,-0.39844 -2.68945,-0.39844 -3.18752,0 -5.37892,1.59375 -6.57422,4.78125 l -2.29102,0"
         style="marker:none"
         id="path3140" />
      <path
         d="m 267.12029,402.09314 c -1e-5,-10.75776 3.98436,-20.35345 11.95312,-28.78711 9.69528,-10.22648 21.28316,-15.33976 34.76367,-15.33984 13.4804,8e-5 25.03508,5.11336 34.66406,15.33984 7.96866,8.50006 11.95303,18.12896 11.95313,28.88672 -1e-4,10.62503 -3.78525,20.08791 -11.35547,28.38867 -9.29695,10.22657 -21.05085,15.33984 -35.26172,15.33984 -14.21097,0 -25.99807,-5.11327 -35.36133,-15.33984 -3.65235,-3.98436 -6.47462,-8.43357 -8.46679,-13.34766 -1.92579,-4.91403 -2.88868,-9.9609 -2.88867,-15.14062 m 18.1289,-1.0957 c -2e-5,11.55472 2.58982,21.34963 7.76953,29.38476 5.84371,8.96485 12.98238,13.44727 21.41602,13.44727 3.58588,0 7.0722,-0.99609 10.45898,-2.98828 3.38665,-1.99219 6.30853,-4.78125 8.76563,-8.36719 2.58977,-3.71874 4.68156,-8.36717 6.27539,-13.94531 1.59367,-5.6445 2.39054,-11.08981 2.39062,-16.33594 -8e-5,-5.44527 -0.86336,-10.92378 -2.58984,-16.43555 -1.66023,-5.57806 -3.91804,-10.3593 -6.77344,-14.34375 -5.44538,-7.50382 -12.1192,-11.25577 -20.02148,-11.25586 -7.50395,9e-5 -13.97856,3.95125 -19.42383,11.85352 -5.51175,7.90241 -8.2676,17.56451 -8.26758,28.98633"
         style="marker:none"
         id="path3142" />
      <path
         d="m 370.41521,307.76306 28.58789,-3.58594 0,111.16407 0.0996,7.57031 c -4e-5,4.51564 0.26559,7.83595 0.79687,9.96094 0.53122,2.0586 1.56051,3.78516 3.08789,5.17968 1.85934,1.79298 5.27926,3.1543 10.25977,4.08399 l 0,1.99219 -43.92774,0 0,-1.99219 c 3.98437,-0.53125 6.83984,-1.26172 8.56641,-2.19141 1.72655,-0.99609 3.12108,-2.65624 4.18359,-4.98047 0.73046,-1.52733 1.2285,-3.81834 1.49414,-6.87304 0.33202,-3.12108 0.49803,-7.6035 0.49805,-13.44727 l 0,-78.19336 c -2e-5,-6.77332 -0.16603,-11.55457 -0.49805,-14.34375 -0.33204,-2.78894 -1.06251,-5.04675 -2.1914,-6.77344 -1.12892,-1.85924 -2.49025,-3.18736 -4.08399,-3.98437 -1.59376,-0.79674 -3.88477,-1.29479 -6.87304,-1.49414 l 0,-2.0918"
         style="marker:none"
         id="path3144" />
      <path
         d="m 490.4445,445.82166 c -0.86335,-3.98438 -1.29499,-8.06836 -1.29492,-12.25196 -8.30084,8.23438 -18.12896,12.35156 -29.48437,12.35156 -8.30082,0 -14.97464,-2.02539 -20.02149,-6.07617 -4.91408,-3.98436 -7.37111,-9.62889 -7.37109,-16.93359 l 0,-34.66406 -0.0996,-7.57032 c -2e-5,-4.51555 -0.26564,-7.80266 -0.79688,-9.86132 -0.53126,-2.05852 -1.52735,-3.81829 -2.98828,-5.2793 -1.92579,-1.79289 -5.37891,-3.12101 -10.35937,-3.98438 l 0,-2.09179 29.18555,0 0,50.50195 c -4e-5,7.1055 0.23239,12.38479 0.69726,15.83789 0.53122,3.38673 1.4609,6.17579 2.78906,8.36719 1.4609,2.25782 3.5527,4.05079 6.27539,5.3789 2.72262,1.26173 5.7773,1.89259 9.16407,1.89258 3.71869,10e-6 7.20502,-0.73046 10.45898,-2.1914 3.25384,-1.46093 5.81048,-3.45312 7.66992,-5.97657 1.92571,-2.58983 3.18743,-5.5781 3.78516,-8.96484 0.66399,-3.3867 0.99602,-8.96481 0.99609,-16.73437 l 0,-19.52344 -0.0996,-7.3711 c -7e-5,-4.51555 -0.26569,-7.80266 -0.79687,-9.86132 -0.46492,-2.05852 -1.46101,-3.81829 -2.98828,-5.2793 -1.85945,-1.79289 -5.31257,-3.12101 -10.35938,-3.98438 l 0,-2.09179 29.18555,0 0,54.08789 c -9e-5,6.83987 0.16593,11.65431 0.49805,14.44336 0.39834,2.72267 1.12881,4.94727 2.1914,6.67383 1.19522,1.85938 2.58975,3.2207 4.1836,4.08398 1.59365,0.79688 3.88466,1.29493 6.87304,1.49414 l 0,1.99219 -27.29297,3.58594"
         style="marker:none"
         id="path3146" />
      <path
         d="m 548.8156,359.46033 25.40039,0 0,3.78515 -25.40039,0 0,57.97266 c -3e-5,6.97267 1.19528,11.95314 3.58594,14.94141 1.26168,1.66016 2.92184,2.95508 4.98046,3.88476 2.05856,0.92969 4.28317,1.39454 6.67383,1.39453 2.98824,10e-6 5.47847,-0.59765 7.47071,-1.79297 1.99213,-1.26171 4.18353,-3.51952 6.57421,-6.77343 l 1.49414,1.29492 c -2.19146,3.98438 -5.27935,6.93945 -9.26367,8.86523 -3.91801,1.92578 -8.83207,2.88867 -14.74218,2.88867 -7.83597,0 -13.5469,-1.52734 -17.13282,-4.58203 -1.92579,-1.59374 -3.18751,-3.48632 -3.78515,-5.67773 -0.59767,-2.2578 -0.8965,-6.27538 -0.89649,-12.05274 l 0,-60.36328 -10.6582,0 0,-1.59375 c 4.3164,-1.39444 8.30077,-4.08389 11.95312,-8.06836 2.19139,-2.45693 3.95116,-4.88076 5.2793,-7.27148 1.3281,-2.45693 2.58982,-5.61123 3.78516,-9.46289 l 0.99609,-3.28711 3.68555,0 0,25.89844"
         style="marker:none"
         id="path3148" />
      <path
         d="m 577.20427,361.35291 28.58789,-3.58594 0,57.57422 0.0996,7.57031 c -3e-5,4.51564 0.26559,7.83595 0.79687,9.96094 0.53122,2.0586 1.56052,3.78516 3.0879,5.17968 1.85933,1.79298 5.27925,3.1543 10.25976,4.08399 l 0,1.99219 -43.92773,0 0,-1.99219 c 3.98436,-0.53125 6.83983,-1.26172 8.5664,-2.19141 1.72655,-0.99609 3.12108,-2.65624 4.1836,-4.98047 0.73045,-1.52733 1.2285,-3.81834 1.49414,-6.87304 0.33201,-3.12108 0.49803,-7.6035 0.49804,-13.44727 l 0,-24.60351 c -10e-6,-6.83979 -0.16603,-11.62103 -0.49804,-14.34375 -0.33205,-2.789 -1.06252,-5.04681 -2.19141,-6.77344 -1.12892,-1.8593 -2.49025,-3.18742 -4.08398,-3.98438 -1.59376,-0.8632 -3.88478,-1.39445 -6.87305,-1.59375 l 0,-1.99218 m 20.71875,-39.14649 c -2.58987,1.2e-4 -4.74807,-0.82995 -6.47461,-2.49023 -1.66017,-1.66003 -2.49025,-3.75183 -2.49023,-6.27539 -2e-5,-2.4569 0.86326,-4.51549 2.58984,-6.17579 1.72654,-1.72642 3.85154,-2.5897 6.375,-2.58984 2.52341,1.4e-4 4.64841,0.86342 6.375,2.58984 1.72653,1.6603 2.58981,3.71889 2.58984,6.17579 -3e-5,2.52356 -0.86331,4.61536 -2.58984,6.27539 -1.66019,1.66028 -3.78518,2.49035 -6.375,2.49023"
         style="marker:none"
         id="path3150" />
      <path
         d="m 628.90154,402.09314 c -10e-6,-10.75776 3.98436,-20.35345 11.95312,-28.78711 9.69528,-10.22648 21.28316,-15.33976 34.76367,-15.33984 13.4804,8e-5 25.03508,5.11336 34.66406,15.33984 7.96866,8.50006 11.95303,18.12896 11.95313,28.88672 -10e-5,10.62503 -3.78525,20.08791 -11.35547,28.38867 -9.29695,10.22657 -21.05085,15.33984 -35.26172,15.33984 -14.21097,0 -25.99807,-5.11327 -35.36133,-15.33984 -3.65235,-3.98436 -6.47462,-8.43357 -8.46679,-13.34766 -1.92579,-4.91403 -2.88868,-9.9609 -2.88867,-15.14062 m 18.1289,-1.0957 c -2e-5,11.55472 2.58982,21.34963 7.76953,29.38476 5.84371,8.96485 12.98238,13.44727 21.41602,13.44727 3.58588,0 7.0722,-0.99609 10.45898,-2.98828 3.38665,-1.99219 6.30853,-4.78125 8.76563,-8.36719 2.58977,-3.71874 4.68156,-8.36717 6.27539,-13.94531 1.59367,-5.6445 2.39054,-11.08981 2.39062,-16.33594 -8e-5,-5.44527 -0.86336,-10.92378 -2.58984,-16.43555 -1.66023,-5.57806 -3.91804,-10.3593 -6.77344,-14.34375 -5.44538,-7.50382 -12.1192,-11.25577 -20.02148,-11.25586 -7.50395,9e-5 -13.97856,3.95125 -19.42383,11.85352 -5.51175,7.90241 -8.2676,17.56451 -8.26758,28.98633"
         style="marker:none"
         id="path3152" />
      <path
         d="m 759.38982,357.76697 c 0.92965,3.85164 1.3945,7.43758 1.39453,10.75781 l 0,1.59375 c 8.23433,-8.10148 18.02924,-12.15226 29.38476,-12.15234 8.49993,8e-5 15.33977,1.99227 20.51953,5.97656 5.1132,3.91804 7.66984,9.49616 7.66993,16.73437 l 0,42.23438 c -9e-5,4.51564 0.26553,7.83595 0.79687,9.96094 0.53116,2.0586 1.56046,3.78516 3.08789,5.17968 1.85928,1.79298 5.2792,3.1543 10.25977,4.08399 l 0,1.99219 -43.92774,0 0,-1.99219 c 3.98431,-0.53125 6.83978,-1.26172 8.56641,-2.19141 1.72649,-0.99609 3.12102,-2.65624 4.18359,-4.98047 0.7304,-1.52733 1.22844,-3.81834 1.49414,-6.87304 0.33196,-3.12108 0.49798,-7.57029 0.49805,-13.34766 l 0,-21.11719 c -7e-5,-7.23822 -0.2657,-12.55072 -0.79687,-15.9375 -0.46492,-3.38665 -1.39461,-6.1093 -2.78907,-8.16797 -1.52741,-2.32414 -3.71881,-4.1171 -6.57422,-5.3789 -2.85553,-1.32805 -6.00982,-1.99211 -9.46289,-1.99219 -3.7188,8e-5 -7.20512,0.73055 -10.45898,2.19141 -3.18754,1.46101 -5.71098,3.4532 -7.57031,5.97656 -1.99223,2.65632 -3.32035,5.6778 -3.98438,9.06445 -0.59769,3.32038 -0.89651,8.86529 -0.89648,16.63477 l 0,19.52344 0.0996,7.37109 c -4e-5,4.51564 0.26559,7.83595 0.79687,9.96094 0.53122,2.0586 1.56051,3.78516 3.08789,5.17968 1.85934,1.79298 5.27926,3.1543 10.25977,4.08399 l 0,1.99219 -43.92774,0 0,-1.99219 c 3.98437,-0.53125 6.83984,-1.26172 8.56641,-2.19141 1.72655,-0.99609 3.12108,-2.65624 4.18359,-4.98047 0.73046,-1.52733 1.2285,-3.81834 1.49414,-6.87304 0.33202,-3.12108 0.49803,-7.6035 0.49805,-13.44727 l 0,-24.60351 c -2e-5,-6.83979 -0.16603,-11.62103 -0.49805,-14.34375 -0.33204,-2.789 -1.06251,-5.04681 -2.1914,-6.77344 -1.12892,-1.8593 -2.49025,-3.18742 -4.08399,-3.98438 -1.59376,-0.8632 -3.88477,-1.39445 -6.87304,-1.59375 l 0,-1.99218 27.19336,-3.58594"
         style="marker:none"
         id="path3154" />
      <path
         d="m 844.35661,444.1283 0,-28.18946 1.59375,0 c 1.85937,6.90627 4.18358,12.41799 6.97266,16.53516 5.11326,7.50391 11.08981,11.25586 17.92969,11.25586 4.18355,0 7.80269,-1.26172 10.85742,-3.78516 3.32026,-2.78905 4.98042,-6.74022 4.98047,-11.85351 -5e-5,-4.18358 -1.19537,-7.83592 -3.58594,-10.95703 -1.32817,-1.66013 -3.02153,-3.18747 -5.08008,-4.58204 -1.99223,-1.39449 -5.37894,-3.35348 -10.16015,-5.87695 -8.36722,-4.44918 -13.94534,-8.16792 -16.73438,-11.15625 -3.98439,-4.24995 -5.97657,-9.164 -5.97656,-14.74219 -1e-5,-5.97649 1.99217,-11.12297 5.97656,-15.43945 4.58201,-4.91398 10.65818,-7.37101 18.22852,-7.37109 3.38668,8e-5 6.54097,0.59774 9.46289,1.79297 l 3.38672,1.49414 c 1.06245,0.39852 1.99213,0.59773 2.78906,0.59765 1.26167,8e-5 2.45698,-0.99601 3.58594,-2.98828 l 1.99218,0 1.09571,22.61133 -2.0918,0 c -0.73052,-3.18744 -1.5274,-5.74407 -2.39063,-7.66992 -0.79692,-1.92571 -1.95903,-3.78508 -3.48632,-5.57813 -2.05864,-2.52336 -4.44927,-4.48234 -7.17188,-5.87695 -2.72269,-1.46086 -5.41214,-2.19132 -8.06836,-2.19141 -3.71878,9e-5 -6.90627,1.36141 -9.5625,4.08399 -2.58986,2.65632 -3.88478,5.94343 -3.88476,9.86133 -2e-5,3.25397 1.16208,6.20904 3.48632,8.86523 2.3906,2.5899 6.04294,4.98052 10.95704,7.17187 l 10.55859,4.78125 c 6.30854,2.85552 11.02338,6.40825 14.14453,10.65821 3.12103,4.25003 4.68158,9.2637 4.68164,15.04101 -6e-5,6.97268 -2.25787,12.75001 -6.77344,17.33203 -5.17974,5.31251 -11.82035,7.96875 -19.92187,7.96875 -4.38285,0 -8.83206,-0.86328 -13.34766,-2.58984 -2.92189,-1.1289 -4.68166,-1.75976 -5.27929,-1.89258 -0.59768,-0.19921 -1.36135,-0.29882 -2.29102,-0.29883 -2.32423,10e-6 -4.084,0.9961 -5.2793,2.98829 l -1.59375,0"
         style="marker:none"
         id="path3156" />
    </g>
    <g
       style="font-size:204px;font-style:normal;font-variant:normal;font-weight:normal;font-stretch:normal;line-height:125%;letter-spacing:0px;word-spacing:0px;color:#000000;fill:url(#linearGradient3867);fill-opacity:1;fill-rule:nonzero;stroke:none;stroke-width:1px;marker:none;visibility:visible;display:inline;overflow:visible;enable-background:accumulate;font-family:Baskerville Old Face;-inkscape-font-specification:Baskerville Old Face"
       id="text3054">
      <path
         d="m -119.04771,443.93362 0,-2.29101 c 3.85155,-0.19922 6.93944,-0.73047 9.26367,-1.59375 2.39061,-0.92968 4.4824,-2.32421 6.27539,-4.1836 2.12498,-2.12498 3.552709,-4.81444 4.283201,-8.06835 0.730444,-3.25389 1.095678,-8.30076 1.095704,-15.14063 l 0,-73.41211 c -2.6e-5,-6.83973 -0.36526,-11.8866 -1.095704,-15.14062 -0.730492,-3.25379 -2.158221,-5.94324 -4.283201,-8.06836 -1.79299,-1.92565 -3.88478,-3.32018 -6.27539,-4.1836 -2.39064,-0.86315 -5.47853,-1.39439 -9.26367,-1.59375 l 0,-2.29101 65.443355,0 c 6.640548,1.3e-4 10.990153,0.0665 13.048828,0.19922 7.570222,0.59779 13.845606,2.39075 18.826172,5.3789 4.3163,2.65638 7.636609,6.1427 9.960938,10.45899 2.3905101,4.31652 3.5858214,9.16417 3.5859371,14.54297 -1.157e-4,8.69931 -2.6895661,15.83798 -8.0683591,21.41601 -1.925887,2.05868 -4.117291,3.78524 -6.574219,5.17969 -2.45713,1.3282 -6.009861,2.82234 -10.658203,4.48242 6.374903,1.06257 11.322164,2.22468 14.841797,3.48633 3.519422,1.26179 6.706919,3.02155 9.5624998,5.2793 4.2498809,3.45318 7.536987,7.76958 9.86132809,12.94921 2.39049791,5.11333 3.58580921,10.65825 3.58593751,16.63477 -1.283e-4,6.043 -1.2286427,11.58791 -3.68554688,16.63477 -2.39074722,4.98048 -5.74425952,8.99805 -10.06054692,12.05273 -3.9180796,2.72266 -8.5997156,4.61524 -14.0449216,5.67773 -5.379002,1.0625 -12.98251,1.59375 -22.810547,1.59375 l -72.814449,0 m 42.732418,-132.8789 0,59.16797 8.068359,0 c 3.785097,7e-5 7.703062,-0.26555 11.753906,-0.79688 3.519461,-0.53117 6.341723,-1.16203 8.466797,-1.89258 2.191328,-0.73039 4.183514,-1.72648 5.976563,-2.98828 3.386633,-2.52335 5.976474,-5.74405 7.769531,-9.66211 1.859283,-3.98428 2.78897,-8.36709 2.789062,-13.14843 -9.2e-5,-5.04677 -0.962982,-9.82802 -2.888671,-14.34375 -1.859463,-4.58191 -4.349695,-8.13465 -7.470704,-10.65821 -2.722735,-2.19127 -5.843826,-3.68541 -9.363281,-4.48242 -3.453194,-0.79674 -8.732486,-1.19518 -15.83789,-1.19531 l -9.263672,0 m 0,62.25586 0,41.03906 c -4.8e-5,4.98049 0.331983,8.99807 0.996093,12.05273 0.73042,3.05471 1.892528,5.64455 3.486329,7.76954 3.386663,4.44922 9.197204,6.67383 17.43164,6.67382 10.691326,10e-6 19.124911,-2.92187 25.300781,-8.76562 6.242087,-5.84373 9.363177,-13.81248 9.363282,-23.90625 -1.05e-4,-5.7773 -0.962994,-11.123 -2.888672,-16.03711 -1.925881,-4.98041 -4.515722,-8.79877 -7.769531,-11.45508 -5.976651,-4.91399 -15.339922,-7.37102 -28.089844,-7.37109 l -17.830078,0"
         style="marker:none"
         id="path3130" />
    </g>
    <g
       style="font-size:113px;font-style:normal;font-variant:normal;font-weight:normal;font-stretch:normal;line-height:125%;letter-spacing:0px;word-spacing:0px;color:#000000;fill:url(#linearGradient3875);fill-opacity:1;fill-rule:nonzero;stroke:none;stroke-width:1px;marker:none;visibility:visible;display:inline;overflow:visible;enable-background:accumulate;font-family:Baskerville Old Face;-inkscape-font-specification:Baskerville Old Face"
       id="text3058">
      <path
         d="m 53.317604,307.61868 0,1.26905 c -2.096715,0.11042 -3.807163,0.40469 -5.131348,0.88281 -1.287466,0.47826 -2.446156,1.25072 -3.476074,2.31738 -1.434598,1.47142 -2.31741,3.51293 -2.648437,6.12451 -0.22073,1.94961 -0.331081,4.19342 -0.331055,6.73145 l 0,40.66455 c -2.6e-5,3.05307 0.147109,5.46241 0.441406,7.22803 0.294244,1.76563 0.772434,3.18181 1.434571,4.24853 0.956351,1.47136 2.188608,2.57487 3.696777,3.31055 1.508104,0.69889 3.512823,1.12191 6.01416,1.26904 l 0,1.26904 -35.257324,0 0,-1.26904 c 2.133459,-0.11035 3.843906,-0.40462 5.131348,-0.88281 1.324209,-0.51497 2.482899,-1.28743 3.476074,-2.31738 1.177071,-1.17708 1.967923,-2.66683 2.372558,-4.46924 0.404609,-1.8024 0.60692,-4.59797 0.606934,-8.38672 l 0,-40.66455 c -1.4e-5,-3.78868 -0.202325,-6.58425 -0.606934,-8.38672 -0.404635,-1.80234 -1.195487,-3.29209 -2.372558,-4.46924 -0.993175,-1.06666 -2.151865,-1.83912 -3.476074,-2.31738 -1.324226,-0.47812 -3.034673,-0.77239 -5.131348,-0.88281 l 0,-1.26905 35.257324,0"
         style="marker:none"
         id="path3133" />
      <path
         d="m 93.926979,307.61868 0,1.26905 c -2.096715,0.11042 -3.807163,0.40469 -5.131348,0.88281 -1.287466,0.47826 -2.446156,1.25072 -3.476074,2.31738 -1.434598,1.47142 -2.31741,3.51293 -2.648437,6.12451 -0.22073,1.94961 -0.331081,4.19342 -0.331055,6.73145 l 0,40.66455 c -2.6e-5,3.05307 0.147109,5.46241 0.441406,7.22803 0.294244,1.76563 0.772434,3.18181 1.434571,4.24853 0.956351,1.47136 2.188608,2.57487 3.696777,3.31055 1.508104,0.69889 3.512823,1.12191 6.01416,1.26904 l 0,1.26904 -35.257324,0 0,-1.26904 c 2.133459,-0.11035 3.843906,-0.40462 5.131348,-0.88281 1.324209,-0.51497 2.482899,-1.28743 3.476074,-2.31738 1.177071,-1.17708 1.967923,-2.66683 2.372558,-4.46924 0.404609,-1.8024 0.60692,-4.59797 0.606934,-8.38672 l 0,-40.66455 c -1.4e-5,-3.78868 -0.202325,-6.58425 -0.606934,-8.38672 -0.404635,-1.80234 -1.195487,-3.29209 -2.372558,-4.46924 -0.993175,-1.06666 -2.151865,-1.83912 -3.476074,-2.31738 -1.324226,-0.47812 -3.034673,-0.77239 -5.131348,-0.88281 l 0,-1.26905 35.257324,0"
         style="marker:none"
         id="path3135" />
      <path
         d="m 134.53635,307.61868 0,1.26905 c -2.09671,0.11042 -3.80716,0.40469 -5.13134,0.88281 -1.28747,0.47826 -2.44616,1.25072 -3.47608,2.31738 -1.4346,1.47142 -2.31741,3.51293 -2.64844,6.12451 -0.22072,1.94961 -0.33108,4.19342 -0.33105,6.73145 l 0,40.66455 c -3e-5,3.05307 0.14711,5.46241 0.44141,7.22803 0.29424,1.76563 0.77243,3.18181 1.43457,4.24853 0.95635,1.47136 2.18861,2.57487 3.69677,3.31055 1.50811,0.69889 3.51283,1.12191 6.01416,1.26904 l 0,1.26904 -35.25732,0 0,-1.26904 c 2.13346,-0.11035 3.84391,-0.40462 5.13135,-0.88281 1.32421,-0.51497 2.4829,-1.28743 3.47607,-2.31738 1.17707,-1.17708 1.96792,-2.66683 2.37256,-4.46924 0.40461,-1.8024 0.60692,-4.59797 0.60693,-8.38672 l 0,-40.66455 c -10e-6,-3.78868 -0.20232,-6.58425 -0.60693,-8.38672 -0.40464,-1.80234 -1.19549,-3.29209 -2.37256,-4.46924 -0.99317,-1.06666 -2.15186,-1.83912 -3.47607,-2.31738 -1.32423,-0.47812 -3.03468,-0.77239 -5.13135,-0.88281 l 0,-1.26905 35.25732,0"
         style="marker:none"
         id="path3137" />
    </g>
    <path
       style="fill:#999999;fill-opacity:1;stroke:#999999;stroke-width:2;stroke-linecap:butt;stroke-linejoin:miter;stroke-miterlimit:4;stroke-opacity:1;stroke-dasharray:none"
       d="m -120.95593,464.38062 1015.42551,0"
       id="path3877"
       inkscape:connector-curvature="0" />
    <g
       style="font-size:50px;font-style:normal;font-variant:normal;font-weight:normal;font-stretch:normal;line-height:125%;letter-spacing:0.82999998px;word-spacing:0px;color:#000000;fill:#000000;fill-opacity:1;fill-rule:nonzero;stroke:none;stroke-width:1px;marker:none;visibility:visible;display:inline;overflow:visible;enable-background:accumulate;font-family:Times New Roman;-inkscape-font-specification:Times New Roman"
       id="text2998">
      <path
         d="m -96.45298,491.66684 c 2.294896,0.4883 4.012017,1.26955 5.151367,2.34375 1.578746,1.49741 2.368134,3.32846 2.368164,5.49316 -3e-5,1.64389 -0.520863,3.22267 -1.5625,4.73633 -1.041694,1.4974 -2.473985,2.59603 -4.296875,3.2959 -1.806663,0.68359 -4.573588,1.02539 -8.300786,1.02539 l -15.625,0 0,-0.90332 1.24512,0 c 1.38346,0 2.3763,-0.43945 2.97852,-1.31836 0.37434,-0.56966 0.56152,-1.78222 0.56152,-3.63769 l 0,-21.38672 c 0,-2.05075 -0.23601,-3.3447 -0.70801,-3.88184 -0.63477,-0.71611 -1.57878,-1.07419 -2.83203,-1.07422 l -1.24512,0 0,-0.90332 14.30665,0 c 2.66925,4e-5 4.809546,0.19535 6.420894,0.58594 2.441382,0.58597 4.304987,1.62763 5.59082,3.125 1.285779,1.48115 1.928682,3.19013 1.928711,5.12695 -2.9e-5,1.66018 -0.504586,3.14944 -1.513672,4.46778 -1.009141,1.3021 -2.498397,2.27052 -4.467773,2.90527 m -12.79297,-1.31836 c 0.6022,0.11395 1.2858,0.20347 2.05078,0.26855 0.78124,0.0489 1.63573,0.0733 2.56348,0.0732 2.37628,1e-5 4.15851,-0.25226 5.346679,-0.75684 1.204405,-0.52081 2.124001,-1.3102 2.758789,-2.36816 0.634742,-1.05792 0.952124,-2.21352 0.952148,-3.4668 -2.4e-5,-1.93682 -0.789411,-3.58884 -2.368164,-4.95605 -1.578796,-1.36716 -3.881852,-2.05075 -6.909182,-2.05079 -1.62761,4e-5 -3.09246,0.17907 -4.39453,0.53711 l 0,12.71973 m 0,15.82031 c 1.88801,0.43946 3.75161,0.65918 5.59082,0.65918 2.94595,0 5.192038,-0.65917 6.738283,-1.97754 1.5462,-1.33463 2.319311,-2.97851 2.319336,-4.93164 -2.5e-5,-1.28579 -0.34996,-2.52277 -1.049805,-3.71093 -0.699893,-1.18814 -1.839215,-2.12401 -3.417969,-2.80762 -1.578795,-0.68358 -3.531915,-1.02538 -5.859375,-1.02539 -1.00913,1e-5 -1.87176,0.0163 -2.58789,0.0488 -0.71616,0.0326 -1.29396,0.0895 -1.7334,0.17089 l 0,13.57422"
         style="marker:none;font-family:Times New Roman;-inkscape-font-specification:Times New Roman"
         id="path3039" />
      <path
         d="m -64.153252,486.19809 0,13.5498 c -2.1e-5,2.5879 0.05694,4.17481 0.170899,4.76075 0.130187,0.56966 0.325499,0.96842 0.585937,1.19629 0.276671,0.22786 0.594053,0.34179 0.952149,0.34179 0.504534,0 1.074195,-0.13834 1.708984,-0.41504 l 0.341797,0.8545 -6.689453,2.75878 -1.098633,0 0,-4.73632 c -1.920588,2.08333 -3.38543,3.39355 -4.394531,3.93066 -1.009127,0.53711 -2.075206,0.80566 -3.198242,0.80566 -1.253264,0 -2.343758,-0.35807 -3.271485,-1.07421 -0.911463,-0.73242 -1.546228,-1.6683 -1.904297,-2.80762 -0.358077,-1.13932 -0.537113,-2.75065 -0.537109,-4.83399 l 0,-9.98535 c -4e-6,-1.05792 -0.113936,-1.79034 -0.341797,-2.19726 -0.227868,-0.40688 -0.569664,-0.71613 -1.025391,-0.92774 -0.439455,-0.22784 -1.245118,-0.33363 -2.416992,-0.31738 l 0,-0.90332 7.836914,0 0,14.96582 c -8e-6,2.08334 0.358065,3.45052 1.074219,4.10156 0.732412,0.65105 1.611318,0.97657 2.636719,0.97656 0.699857,10e-6 1.489245,-0.21972 2.368164,-0.65917 0.895167,-0.43945 1.953109,-1.27767 3.173828,-2.51465 l 0,-12.6709 c -1.7e-5,-1.26951 -0.236019,-2.124 -0.708008,-2.56348 -0.455745,-0.45571 -1.41603,-0.69985 -2.880859,-0.73242 l 0,-0.90332 7.617187,0"
         style="marker:none;font-family:Times New Roman;-inkscape-font-specification:Times New Roman"
         id="path3041" />
      <path
         d="m -43.474621,485.53891 0,7.61719 -0.805664,0 c -0.618504,-2.39256 -1.416029,-4.02017 -2.392578,-4.88282 -0.960298,-0.8626 -2.189138,-1.29392 -3.686523,-1.29394 -1.139331,2e-5 -2.058927,0.30113 -2.75879,0.90332 -0.699875,0.60223 -1.04981,1.26955 -1.049804,2.00195 -6e-6,0.91148 0.260411,1.69273 0.78125,2.34375 0.50455,0.66734 1.52994,1.37534 3.076172,2.12403 l 3.564453,1.73339 c 3.30402,1.61134 4.956037,3.73537 4.956054,6.37208 -1.7e-5,2.0345 -0.773128,3.67838 -2.319335,4.93164 -1.529962,1.23697 -3.247083,1.85546 -5.151368,1.85546 -1.367196,0 -2.929694,-0.24414 -4.6875,-0.73242 -0.537114,-0.16276 -0.976567,-0.24414 -1.318359,-0.24414 -0.374353,0 -0.667321,0.21159 -0.878906,0.63477 l -0.805664,0 0,-7.9834 0.805664,0 c 0.455725,2.27865 1.326492,3.99577 2.612304,5.15137 1.2858,1.1556 2.726229,1.7334 4.321289,1.73339 1.123036,10e-6 2.034493,-0.32551 2.734375,-0.97656 0.716133,-0.66731 1.074205,-1.46484 1.074219,-2.39258 -1.4e-5,-1.12304 -0.398776,-2.06705 -1.196289,-2.83203 -0.781262,-0.76496 -2.351898,-1.73339 -4.711914,-2.90527 -2.360032,-1.17186 -3.906254,-2.22981 -4.638672,-3.17383 -0.732424,-0.92772 -1.098635,-2.09959 -1.098633,-3.51562 -2e-6,-1.83918 0.626625,-3.37726 1.879883,-4.61426 1.269526,-1.23696 2.905266,-1.85545 4.907227,-1.85547 0.878896,2e-5 1.944976,0.1872 3.198242,0.56152 0.830065,0.24417 1.38345,0.36624 1.660156,0.36621 0.260403,3e-5 0.463853,-0.0569 0.610352,-0.17089 0.146469,-0.11391 0.317368,-0.36619 0.512695,-0.75684 l 0.805664,0"
         style="marker:none;font-family:Times New Roman;-inkscape-font-specification:Times New Roman"
         id="path3043" />
      <path
         d="m -31.975677,473.84457 c 0.683585,4e-5 1.261384,0.24418 1.733398,0.73243 0.488272,0.47203 0.732412,1.04983 0.732422,1.73339 -10e-6,0.68363 -0.24415,1.26957 -0.732422,1.75782 -0.472014,0.48831 -1.049813,0.73245 -1.733398,0.73242 -0.683601,3e-5 -1.269538,-0.24411 -1.757813,-0.73242 -0.488286,-0.48825 -0.732427,-1.07419 -0.732422,-1.75782 -5e-6,-0.68356 0.235998,-1.26136 0.708008,-1.73339 0.488275,-0.48825 1.08235,-0.73239 1.782227,-0.73243 m 2.026367,11.69434 0,17.96875 c -10e-6,1.39974 0.09765,2.33561 0.292968,2.80762 0.211579,0.45573 0.512686,0.79752 0.903321,1.02539 0.40689,0.22786 1.139311,0.3418 2.197265,0.34179 l 0,0.87891 -10.864257,0 0,-0.87891 c 1.090491,1e-5 1.822913,-0.10579 2.197265,-0.31738 0.374345,-0.21159 0.667313,-0.56152 0.878906,-1.0498 0.22786,-0.48828 0.341792,-1.42415 0.341797,-2.80762 l 0,-8.61816 c -5e-6,-2.42512 -0.07325,-3.99575 -0.219726,-4.71192 -0.113937,-0.52081 -0.292974,-0.87889 -0.53711,-1.07422 -0.244144,-0.21157 -0.577803,-0.31736 -1.000976,-0.31738 -0.455732,2e-5 -1.009117,0.12209 -1.660156,0.36621 l -0.341797,-0.87891 6.738281,-2.73437 1.074219,0"
         style="marker:none;font-family:Times New Roman;-inkscape-font-specification:Times New Roman"
         id="path3045" />
      <path
         d="m -16.44841,490.27524 c 2.620432,-3.15753 5.118802,-4.73631 7.4951172,-4.73633 1.2206863,2e-5 2.2704899,0.30927 3.149414,0.92773 0.8788867,0.60224 1.5787558,1.60321 2.0996094,3.00293 0.3580517,0.97658 0.537088,2.47398 0.5371094,4.49219 l 0,9.5459 c -2.14e-5,1.41602 0.1139108,2.3763 0.3417968,2.88086 0.1790146,0.4069 0.4638451,0.72428 0.8544922,0.95215 0.4068781,0.22786 1.14743726,0.3418 2.22167972,0.34179 l 0,0.87891 -11.05957072,0 0,-0.87891 0.463868,0 c 1.041651,1e-5 1.7659342,-0.15462 2.1728512,-0.46386 0.4231603,-0.32552 0.7161287,-0.79753 0.8789062,-1.41602 0.065087,-0.24414 0.097639,-1.00911 0.097656,-2.29492 l 0,-9.15527 c -1.74e-5,-2.03449 -0.2685718,-3.50747 -0.8056641,-4.41895 -0.5208494,-0.92771 -1.4078927,-1.39158 -2.6611326,-1.3916 -1.936861,2e-5 -3.86557,1.05796 -5.786133,3.17383 l 0,11.79199 c -8e-6,1.51368 0.08951,2.44955 0.268555,2.80762 0.227856,0.472 0.5371,0.82194 0.927734,1.0498 0.406891,0.21159 1.220693,0.31739 2.441406,0.31738 l 0,0.87891 -11.05957,0 0,-0.87891 0.488281,0 c 1.139321,1e-5 1.904294,-0.28482 2.294922,-0.85449 0.406897,-0.58593 0.610348,-1.6927 0.610352,-3.32031 l 0,-8.30078 c -4e-6,-2.68553 -0.06511,-4.32127 -0.195313,-4.90723 -0.113936,-0.58592 -0.30111,-0.98468 -0.561523,-1.19629 -0.244144,-0.21157 -0.577802,-0.31736 -1.000977,-0.31738 -0.455731,2e-5 -1.000978,0.12209 -1.635742,0.36621 l -0.366211,-0.87891 6.738281,-2.73437 1.049805,0 0,4.73633"
         style="marker:none;font-family:Times New Roman;-inkscape-font-specification:Times New Roman"
         id="path3047" />
      <path
         d="m 6.6228027,494.62094 c -0.016281,3.32032 0.7893819,5.92449 2.4169922,7.8125 1.6275951,1.88803 3.5400281,2.83204 5.7373051,2.83203 1.464828,1e-5 2.734358,-0.39876 3.808593,-1.19629 1.090477,-0.81379 2.001934,-2.19726 2.734375,-4.15039 l 0.756836,0.48828 c -0.341817,2.22983 -1.334655,4.26433 -2.978515,6.10352 -1.643897,1.82292 -3.702814,2.73437 -6.176758,2.73437 -2.685556,0 -4.9886135,-1.04166 -6.9091798,-3.125 -1.9042997,-2.0996 -2.8564472,-4.91535 -2.8564453,-8.44726 -1.9e-6,-3.82486 0.9765596,-6.80337 2.9296875,-8.93555 1.9693942,-2.14841 4.4352116,-3.22263 7.3974606,-3.22265 2.506496,2e-5 4.565413,0.8301 6.176758,2.49023 1.611308,1.6439 2.416972,3.8493 2.416992,6.61621 l -15.4541013,0 m 0,-1.41601 10.3515623,0 c -0.0814,-1.43228 -0.252294,-2.44139 -0.512695,-3.02735 -0.406916,-0.91144 -1.017267,-1.62758 -1.831055,-2.14844 -0.797538,-0.52081 -1.635754,-0.78122 -2.514648,-0.78125 -1.350921,3e-5 -2.563485,0.529 -3.6376955,1.58692 -1.0579488,1.04168 -1.6764378,2.49839 -1.8554688,4.37012"
         style="marker:none;font-family:Times New Roman;-inkscape-font-specification:Times New Roman"
         id="path3049" />
      <path
         d="m 40.314125,485.53891 0,7.61719 -0.805664,0 c -0.618504,-2.39256 -1.416029,-4.02017 -2.392578,-4.88282 -0.960298,-0.8626 -2.189138,-1.29392 -3.686524,-1.29394 -1.13933,2e-5 -2.058926,0.30113 -2.758789,0.90332 -0.699875,0.60223 -1.04981,1.26955 -1.049804,2.00195 -6e-6,0.91148 0.260411,1.69273 0.78125,2.34375 0.50455,0.66734 1.52994,1.37534 3.076172,2.12403 l 3.564453,1.73339 c 3.30402,1.61134 4.956037,3.73537 4.956054,6.37208 -1.7e-5,2.0345 -0.773129,3.67838 -2.319336,4.93164 -1.529961,1.23697 -3.247082,1.85546 -5.151367,1.85546 -1.367196,0 -2.929695,-0.24414 -4.6875,-0.73242 -0.537114,-0.16276 -0.976567,-0.24414 -1.318359,-0.24414 -0.374353,0 -0.667321,0.21159 -0.878906,0.63477 l -0.805664,0 0,-7.9834 0.805664,0 c 0.455725,2.27865 1.326492,3.99577 2.612304,5.15137 1.2858,1.1556 2.726229,1.7334 4.321289,1.73339 1.123036,10e-6 2.034493,-0.32551 2.734375,-0.97656 0.716132,-0.66731 1.074205,-1.46484 1.074219,-2.39258 -1.4e-5,-1.12304 -0.398777,-2.06705 -1.196289,-2.83203 -0.781262,-0.76496 -2.351898,-1.73339 -4.711914,-2.90527 -2.360032,-1.17186 -3.906254,-2.22981 -4.638672,-3.17383 -0.732425,-0.92772 -1.098635,-2.09959 -1.098633,-3.51562 -2e-6,-1.83918 0.626625,-3.37726 1.879883,-4.61426 1.269526,-1.23696 2.905266,-1.85545 4.907227,-1.85547 0.878896,2e-5 1.944975,0.1872 3.198242,0.56152 0.830065,0.24417 1.38345,0.36624 1.660156,0.36621 0.260402,3e-5 0.463853,-0.0569 0.610352,-0.17089 0.146469,-0.11391 0.317367,-0.36619 0.512695,-0.75684 l 0.805664,0"
         style="marker:none;font-family:Times New Roman;-inkscape-font-specification:Times New Roman"
         id="path3051" />
      <path
         d="m 60.577721,485.53891 0,7.61719 -0.805664,0 c -0.618505,-2.39256 -1.41603,-4.02017 -2.392579,-4.88282 -0.960298,-0.8626 -2.189138,-1.29392 -3.686523,-1.29394 -1.139331,2e-5 -2.058926,0.30113 -2.758789,0.90332 -0.699876,0.60223 -1.04981,1.26955 -1.049805,2.00195 -5e-6,0.91148 0.260411,1.69273 0.78125,2.34375 0.504551,0.66734 1.529941,1.37534 3.076172,2.12403 l 3.564453,1.73339 c 3.304021,1.61134 4.956037,3.73537 4.956055,6.37208 -1.8e-5,2.0345 -0.773129,3.67838 -2.319336,4.93164 -1.529962,1.23697 -3.247082,1.85546 -5.151367,1.85546 -1.367197,0 -2.929695,-0.24414 -4.6875,-0.73242 -0.537115,-0.16276 -0.976567,-0.24414 -1.31836,-0.24414 -0.374352,0 -0.667321,0.21159 -0.878906,0.63477 l -0.805664,0 0,-7.9834 0.805664,0 c 0.455726,2.27865 1.326493,3.99577 2.612305,5.15137 1.2858,1.1556 2.726228,1.7334 4.321289,1.73339 1.123035,10e-6 2.034493,-0.32551 2.734375,-0.97656 0.716132,-0.66731 1.074205,-1.46484 1.074219,-2.39258 -1.4e-5,-1.12304 -0.398777,-2.06705 -1.196289,-2.83203 -0.781262,-0.76496 -2.351899,-1.73339 -4.711914,-2.90527 -2.360032,-1.17186 -3.906255,-2.22981 -4.638672,-3.17383 -0.732425,-0.92772 -1.098636,-2.09959 -1.098633,-3.51562 -3e-6,-1.83918 0.626624,-3.37726 1.879883,-4.61426 1.269525,-1.23696 2.905266,-1.85545 4.907226,-1.85547 0.878896,2e-5 1.944976,0.1872 3.198242,0.56152 0.830065,0.24417 1.38345,0.36624 1.660157,0.36621 0.260402,3e-5 0.463852,-0.0569 0.610351,-0.17089 0.14647,-0.11391 0.317368,-0.36619 0.512696,-0.75684 l 0.805664,0"
         style="marker:none;font-family:Times New Roman;-inkscape-font-specification:Times New Roman"
         id="path3053" />
      <path
         d="m 71.881355,485.5145 c 0.74869,2e-5 1.383455,0.26857 1.904297,0.80566 0.5371,0.52085 0.805654,1.15562 0.805664,1.9043 -1e-5,0.74871 -0.268564,1.39162 -0.805664,1.92871 -0.520842,0.52085 -1.155607,0.78127 -1.904297,0.78125 -0.748704,2e-5 -1.391607,-0.2604 -1.928711,-0.78125 -0.520838,-0.53709 -0.781254,-1.18 -0.78125,-1.92871 -4e-6,-0.74868 0.260412,-1.38345 0.78125,-1.9043 0.537104,-0.53709 1.180007,-0.80564 1.928711,-0.80566 m -0.04883,18.28613 c 0.764966,0 1.407869,0.26856 1.928711,0.80566 0.5371,0.53712 0.805654,1.18002 0.805664,1.92871 -1e-5,0.7487 -0.268564,1.39161 -0.805664,1.92871 -0.537118,0.52084 -1.180021,0.78125 -1.928711,0.78125 -0.748704,0 -1.391607,-0.26041 -1.928711,-0.78125 -0.520838,-0.5371 -0.781254,-1.18001 -0.78125,-1.92871 -4e-6,-0.74869 0.260412,-1.39159 0.78125,-1.92871 0.537104,-0.5371 1.180007,-0.80566 1.928711,-0.80566"
         style="marker:none;font-family:Times New Roman;-inkscape-font-specification:Times New Roman"
         id="path3055" />
      <path
         d="m 108.28257,507.65805 0,0.90332 -14.18457,0 0,-0.90332 1.171875,0 c 1.367183,0 2.360021,-0.39876 2.978515,-1.19629 0.390619,-0.52083 0.585932,-1.77408 0.585938,-3.75976 l 0,-21.38672 c -6e-6,-1.67641 -0.1058,-2.78318 -0.317383,-3.32032 -0.162766,-0.40687 -0.496425,-0.7568 -1.000977,-1.0498 -0.716149,-0.39059 -1.464847,-0.58591 -2.246093,-0.58594 l -1.171875,0 0,-0.90332 14.18457,0 0,0.90332 -1.19629,0 c -1.35092,3e-5 -2.33562,0.3988 -2.9541,1.19629 -0.40691,0.52087 -0.61036,1.77412 -0.61035,3.75977 l 0,21.38672 c -10e-6,1.67643 0.10578,2.7832 0.31738,3.32031 0.16275,0.4069 0.50455,0.75684 1.02539,1.0498 0.69986,0.39063 1.44042,0.58594 2.22168,0.58594 l 1.19629,0"
         style="marker:none;font-family:Times New Roman;-inkscape-font-specification:Times New Roman"
         id="path3057" />
      <path
         d="m 118.58523,490.29965 c 1.62759,-1.62758 2.58788,-2.56345 2.88086,-2.80762 0.73241,-0.61846 1.52179,-1.09861 2.36816,-1.44042 0.84634,-0.34178 1.68456,-0.51268 2.51465,-0.5127 1.39972,2e-5 2.60415,0.40692 3.61328,1.2207 1.0091,0.81383 1.68455,1.99384 2.02637,3.54004 1.67641,-1.9531 3.09242,-3.23077 4.24805,-3.83301 1.15557,-0.61846 2.34372,-0.92771 3.56445,-0.92773 1.18812,2e-5 2.23792,0.30927 3.14941,0.92773 0.9277,0.60224 1.66012,1.59508 2.19727,2.97852 0.35804,0.94403 0.53707,2.42515 0.53711,4.44336 l 0,9.61914 c -4e-5,1.39974 0.10576,2.36003 0.31738,2.88086 0.16272,0.35807 0.46383,0.66732 0.90332,0.92773 0.43942,0.24415 1.15556,0.36622 2.14844,0.36621 l 0,0.87891 -11.03516,0 0,-0.87891 0.46387,0 c 0.96026,1e-5 1.70895,-0.18717 2.24609,-0.56152 0.37432,-0.26041 0.64288,-0.67545 0.80567,-1.24512 0.0651,-0.27669 0.0976,-1.06607 0.0977,-2.36816 l 0,-9.61914 c -3e-5,-1.8229 -0.21975,-3.10871 -0.65918,-3.85742 -0.63479,-1.04165 -1.65204,-1.56248 -3.05175,-1.5625 -0.86266,2e-5 -1.73343,0.21974 -2.61231,0.65918 -0.86265,0.42319 -1.91246,1.22072 -3.14941,2.39258 l -0.0488,0.26855 0.0488,1.0498 0,10.66895 c -3e-5,1.52995 0.0814,2.4821 0.24414,2.85645 0.17901,0.37435 0.50453,0.69173 0.97656,0.95214 0.47198,0.24415 1.27764,0.36622 2.41699,0.36621 l 0,0.87891 -11.30371,0 0,-0.87891 c 1.23696,1e-5 2.08332,-0.14648 2.53906,-0.43945 0.47199,-0.29297 0.79751,-0.73242 0.97657,-1.31836 0.0814,-0.27669 0.12205,-1.08235 0.12207,-2.41699 l 0,-9.61914 c -2e-5,-1.8229 -0.26858,-3.13312 -0.80567,-3.93066 -0.71616,-1.04165 -1.71714,-1.56248 -3.00293,-1.5625 -0.87892,2e-5 -1.74968,0.23602 -2.6123,0.708 -1.35092,0.71617 -2.39259,1.52183 -3.125,2.417 l 0,11.9873 c -10e-6,1.46485 0.0977,2.41699 0.29297,2.85645 0.21158,0.43945 0.51268,0.77311 0.90332,1.00097 0.40689,0.21159 1.22069,0.31739 2.4414,0.31738 l 0,0.87891 -11.05957,0 0,-0.87891 c 1.02539,1e-5 1.74154,-0.10579 2.14844,-0.31738 0.4069,-0.22786 0.71614,-0.5778 0.92773,-1.0498 0.21159,-0.48828 0.31738,-1.42415 0.31739,-2.80762 l 0,-8.54492 c -1e-5,-2.45767 -0.0733,-4.04458 -0.21973,-4.76074 -0.11394,-0.53709 -0.29297,-0.90331 -0.53711,-1.09864 -0.24414,-0.21157 -0.5778,-0.31736 -1.00097,-0.31738 -0.45574,2e-5 -1.00098,0.12209 -1.63575,0.36621 l -0.36621,-0.87891 6.73828,-2.73437 1.04981,0 0,4.76074"
         style="marker:none;font-family:Times New Roman;-inkscape-font-specification:Times New Roman"
         id="path3059" />
      <path
         d="m 150.12811,488.41977 6.88476,-2.7832 0.92774,0 0,5.22461 c 1.15559,-1.96939 2.31118,-3.34471 3.46679,-4.12598 1.17186,-0.7975 2.4007,-1.19627 3.68653,-1.19629 2.24607,2e-5 4.11781,0.87893 5.61523,2.63672 1.83917,2.14845 2.75877,4.94793 2.75879,8.39844 -2e-5,3.85743 -1.10679,7.04753 -3.32031,9.57031 -1.82294,2.06706 -4.11786,3.10058 -6.88477,3.10058 -1.20444,0 -2.2461,-0.17089 -3.125,-0.51269 -0.65105,-0.24414 -1.38347,-0.73242 -2.19726,-1.46484 l 0,6.81152 c -1e-5,1.52994 0.0895,2.49836 0.26855,2.90527 0.1953,0.42317 0.52082,0.75683 0.97656,1.00098 0.472,0.24413 1.31835,0.3662 2.53906,0.36621 l 0,0.90332 -11.71875,0 0,-0.90332 0.61036,0 c 0.89518,0.0163 1.66015,-0.15463 2.29492,-0.5127 0.30924,-0.17904 0.54524,-0.47201 0.70801,-0.8789 0.17903,-0.39063 0.26855,-1.39975 0.26855,-3.02735 l 0,-21.14257 c 0,-1.44855 -0.0651,-2.36815 -0.19531,-2.75879 -0.13021,-0.39061 -0.3418,-0.68358 -0.63477,-0.87891 -0.27669,-0.19529 -0.65918,-0.29295 -1.14746,-0.29297 -0.39062,2e-5 -0.88704,0.11395 -1.48926,0.3418 l -0.29296,-0.78125 m 7.8125,3.88184 0,8.3496 c -1e-5,1.80665 0.0732,2.9948 0.21972,3.56446 0.22786,0.94401 0.78124,1.77409 1.66016,2.49023 0.89517,0.71615 2.01822,1.07422 3.36914,1.07422 1.62759,0 2.94595,-0.63476 3.95508,-1.9043 1.31834,-1.66015 1.97752,-3.99576 1.97754,-7.00683 -2e-5,-3.41796 -0.74872,-6.04654 -2.2461,-7.88574 -1.04168,-1.26952 -2.27866,-1.90428 -3.71094,-1.9043 -0.78126,2e-5 -1.55437,0.19533 -2.31933,0.58594 -0.58595,0.29298 -1.55437,1.17189 -2.90527,2.63672"
         style="marker:none;font-family:Times New Roman;-inkscape-font-specification:Times New Roman"
         id="path3061" />
      <path
         d="m 184.11242,485.53891 0,5.0293 c 1.87173,-3.35285 3.7923,-5.02928 5.76172,-5.0293 0.89517,2e-5 1.63572,0.27672 2.22168,0.83008 0.58592,0.53713 0.87889,1.16376 0.8789,1.87988 -1e-5,0.63479 -0.2116,1.17189 -0.63476,1.61133 -0.42319,0.43947 -0.92775,0.6592 -1.51367,0.65918 -0.56968,2e-5 -1.21258,-0.27668 -1.92871,-0.83008 -0.69989,-0.56964 -1.22072,-0.85447 -1.5625,-0.85449 -0.29298,2e-5 -0.61037,0.16278 -0.95215,0.48828 -0.73243,0.66734 -1.48927,1.76597 -2.27051,3.2959 l 0,10.71777 c -10e-6,1.23698 0.15461,2.17286 0.46387,2.80762 0.21158,0.43945 0.58592,0.80566 1.12304,1.09863 0.5371,0.29297 1.31021,0.43946 2.31934,0.43945 l 0,0.87891 -11.4502,0 0,-0.87891 c 1.13933,1e-5 1.98568,-0.17903 2.53907,-0.5371 0.40689,-0.26042 0.69172,-0.67546 0.85449,-1.24512 0.0814,-0.27669 0.12206,-1.06608 0.12207,-2.36817 l 0,-8.66699 c -1e-5,-2.60415 -0.057,-4.15037 -0.1709,-4.63867 -0.0977,-0.50454 -0.29297,-0.87075 -0.58594,-1.09863 -0.27669,-0.22785 -0.62663,-0.34178 -1.0498,-0.3418 -0.50456,2e-5 -1.07422,0.12209 -1.70899,0.36621 l -0.24414,-0.87891 6.7627,-2.73437 1.02539,0"
         style="marker:none;font-family:Times New Roman;-inkscape-font-specification:Times New Roman"
         id="path3063" />
      <path
         d="m 206.03616,485.53891 c 3.3854,2e-5 6.10349,1.28583 8.15429,3.85742 1.74152,2.19728 2.61228,4.72007 2.61231,7.56836 -3e-5,2.00196 -0.48017,4.02833 -1.44043,6.0791 -0.96031,2.05079 -2.28681,3.59701 -3.97949,4.63867 -1.67645,1.04167 -3.5482,1.5625 -5.61524,1.5625 -3.36915,0 -6.04655,-1.34277 -8.03223,-4.02832 -1.67643,-2.26236 -2.51465,-4.80142 -2.51464,-7.61718 -1e-5,-2.05077 0.50455,-4.08527 1.51367,-6.10352 1.02538,-2.03448 2.36816,-3.53188 4.02832,-4.49219 1.66015,-0.97654 3.41796,-1.46482 5.27344,-1.46484 m -0.75684,1.58691 c -0.86264,3e-5 -1.73341,0.26044 -2.6123,0.78125 -0.86264,0.50458 -1.56251,1.39976 -2.09961,2.68555 -0.53712,1.28582 -0.80567,2.93784 -0.80567,4.95606 0,3.25521 0.6429,6.06283 1.92871,8.42285 1.30208,2.36003 3.01106,3.54004 5.12696,3.54004 1.57876,0 2.88084,-0.65104 3.90625,-1.95313 1.02537,-1.30208 1.53806,-3.54003 1.53808,-6.71387 -2e-5,-3.97134 -0.85451,-7.09633 -2.56347,-9.375 -1.15562,-1.56248 -2.6286,-2.34372 -4.41895,-2.34375"
         style="marker:none;font-family:Times New Roman;-inkscape-font-specification:Times New Roman"
         id="path3065" />
      <path
         d="m 219.78121,486.19809 10.52246,0 0,0.90332 -0.68359,0 c -0.63478,2e-5 -1.12306,0.15464 -1.46484,0.46387 -0.32553,0.30926 -0.48829,0.7243 -0.48829,1.24511 0,0.56968 0.17089,1.24514 0.5127,2.02637 l 5.20019,12.35352 5.22461,-12.81739 c 0.37433,-0.91143 0.56151,-1.60317 0.56153,-2.07519 -2e-5,-0.22785 -0.0651,-0.41502 -0.19532,-0.56152 -0.17905,-0.24412 -0.40692,-0.40688 -0.68359,-0.48829 -0.27671,-0.0976 -0.83823,-0.14646 -1.68457,-0.14648 l 0,-0.90332 7.29981,0 0,0.90332 c -0.84638,0.0651 -1.43232,0.23602 -1.75782,0.5127 -0.56968,0.4883 -1.08238,1.3021 -1.53808,2.4414 l -7.93457,19.18945 -1.00098,0 -7.9834,-18.87207 c -0.35808,-0.87888 -0.69987,-1.50551 -1.02539,-1.87988 -0.32552,-0.3906 -0.74056,-0.71612 -1.24512,-0.97656 -0.27669,-0.14646 -0.82194,-0.28481 -1.63574,-0.41504 l 0,-0.90332"
         style="marker:none;font-family:Times New Roman;-inkscape-font-specification:Times New Roman"
         id="path3067" />
      <path
         d="m 250.51842,494.62094 c -0.0163,3.32032 0.78939,5.92449 2.417,7.8125 1.62759,1.88803 3.54002,2.83204 5.7373,2.83203 1.46483,1e-5 2.73436,-0.39876 3.8086,-1.19629 1.09047,-0.81379 2.00193,-2.19726 2.73437,-4.15039 l 0.75684,0.48828 c -0.34182,2.22983 -1.33466,4.26433 -2.97852,6.10352 -1.6439,1.82292 -3.70281,2.73437 -6.17676,2.73437 -2.68555,0 -4.98861,-1.04166 -6.90918,-3.125 -1.9043,-2.0996 -2.85644,-4.91535 -2.85644,-8.44726 0,-3.82486 0.97656,-6.80337 2.92969,-8.93555 1.96939,-2.14841 4.43521,-3.22263 7.39746,-3.22265 2.50649,2e-5 4.56541,0.8301 6.17675,2.49023 1.61131,1.6439 2.41698,3.8493 2.417,6.61621 l -15.45411,0 m 0,-1.41601 10.35157,0 c -0.0814,-1.43228 -0.2523,-2.44139 -0.5127,-3.02735 -0.40691,-0.91144 -1.01726,-1.62758 -1.83105,-2.14844 -0.79754,-0.52081 -1.63576,-0.78122 -2.51465,-0.78125 -1.35092,3e-5 -2.56349,0.529 -3.6377,1.58692 -1.05795,1.04168 -1.67643,2.49839 -1.85547,4.37012"
         style="marker:none;font-family:Times New Roman;-inkscape-font-specification:Times New Roman"
         id="path3069" />
      <path
         d="m 276.39724,490.29965 c 1.62759,-1.62758 2.58788,-2.56345 2.88086,-2.80762 0.73241,-0.61846 1.5218,-1.09861 2.36816,-1.44042 0.84634,-0.34178 1.68456,-0.51268 2.51465,-0.5127 1.39972,2e-5 2.60415,0.40692 3.61328,1.2207 1.0091,0.81383 1.68455,1.99384 2.02637,3.54004 1.67641,-1.9531 3.09242,-3.23077 4.24805,-3.83301 1.15557,-0.61846 2.34372,-0.92771 3.56445,-0.92773 1.18812,2e-5 2.23792,0.30927 3.14941,0.92773 0.9277,0.60224 1.66013,1.59508 2.19727,2.97852 0.35804,0.94403 0.53707,2.42515 0.53711,4.44336 l 0,9.61914 c -4e-5,1.39974 0.10576,2.36003 0.31738,2.88086 0.16273,0.35807 0.46383,0.66732 0.90332,0.92773 0.43942,0.24415 1.15556,0.36622 2.14844,0.36621 l 0,0.87891 -11.03516,0 0,-0.87891 0.46387,0 c 0.96026,1e-5 1.70896,-0.18717 2.24609,-0.56152 0.37432,-0.26041 0.64288,-0.67545 0.80567,-1.24512 0.0651,-0.27669 0.0976,-1.06607 0.0977,-2.36816 l 0,-9.61914 c -3e-5,-1.8229 -0.21975,-3.10871 -0.65918,-3.85742 -0.63479,-1.04165 -1.65204,-1.56248 -3.05175,-1.5625 -0.86266,2e-5 -1.73343,0.21974 -2.61231,0.65918 -0.86265,0.42319 -1.91246,1.22072 -3.14941,2.39258 l -0.0488,0.26855 0.0488,1.0498 0,10.66895 c -2e-5,1.52995 0.0814,2.4821 0.24414,2.85645 0.17901,0.37435 0.50453,0.69173 0.97656,0.95214 0.47198,0.24415 1.27765,0.36622 2.41699,0.36621 l 0,0.87891 -11.30371,0 0,-0.87891 c 1.23697,1e-5 2.08332,-0.14648 2.53907,-0.43945 0.47198,-0.29297 0.7975,-0.73242 0.97656,-1.31836 0.0814,-0.27669 0.12205,-1.08235 0.12207,-2.41699 l 0,-9.61914 c -2e-5,-1.8229 -0.26857,-3.13312 -0.80567,-3.93066 -0.71616,-1.04165 -1.71713,-1.56248 -3.00293,-1.5625 -0.87891,2e-5 -1.74968,0.23602 -2.6123,0.708 -1.35092,0.71617 -2.39259,1.52183 -3.125,2.417 l 0,11.9873 c -1e-5,1.46485 0.0976,2.41699 0.29297,2.85645 0.21158,0.43945 0.51268,0.77311 0.90332,1.00097 0.40689,0.21159 1.22069,0.31739 2.4414,0.31738 l 0,0.87891 -11.05957,0 0,-0.87891 c 1.02539,1e-5 1.74154,-0.10579 2.14844,-0.31738 0.4069,-0.22786 0.71614,-0.5778 0.92774,-1.0498 0.21158,-0.48828 0.31738,-1.42415 0.31738,-2.80762 l 0,-8.54492 c 0,-2.45767 -0.0733,-4.04458 -0.21973,-4.76074 -0.11393,-0.53709 -0.29297,-0.90331 -0.53711,-1.09864 -0.24414,-0.21157 -0.5778,-0.31736 -1.00097,-0.31738 -0.45573,2e-5 -1.00098,0.12209 -1.63575,0.36621 l -0.36621,-0.87891 6.73828,-2.73437 1.04981,0 0,4.76074"
         style="marker:none;font-family:Times New Roman;-inkscape-font-specification:Times New Roman"
         id="path3071" />
      <path
         d="m 313.31124,494.62094 c -0.0163,3.32032 0.78938,5.92449 2.41699,7.8125 1.6276,1.88803 3.54003,2.83204 5.73731,2.83203 1.46483,1e-5 2.73436,-0.39876 3.80859,-1.19629 1.09048,-0.81379 2.00194,-2.19726 2.73438,-4.15039 l 0.75683,0.48828 c -0.34181,2.22983 -1.33465,4.26433 -2.97851,6.10352 -1.6439,1.82292 -3.70282,2.73437 -6.17676,2.73437 -2.68556,0 -4.98861,-1.04166 -6.90918,-3.125 -1.9043,-2.0996 -2.85645,-4.91535 -2.85645,-8.44726 0,-3.82486 0.97656,-6.80337 2.92969,-8.93555 1.9694,-2.14841 4.43521,-3.22263 7.39746,-3.22265 2.5065,2e-5 4.56542,0.8301 6.17676,2.49023 1.61131,1.6439 2.41697,3.8493 2.41699,6.61621 l -15.4541,0 m 0,-1.41601 10.35156,0 c -0.0814,-1.43228 -0.25229,-2.44139 -0.51269,-3.02735 -0.40692,-0.91144 -1.01727,-1.62758 -1.83106,-2.14844 -0.79753,-0.52081 -1.63575,-0.78122 -2.51464,-0.78125 -1.35093,3e-5 -2.56349,0.529 -3.6377,1.58692 -1.05795,1.04168 -1.67644,2.49839 -1.85547,4.37012"
         style="marker:none;font-family:Times New Roman;-inkscape-font-specification:Times New Roman"
         id="path3073" />
      <path
         d="m 339.06799,490.27524 c 2.62043,-3.15753 5.1188,-4.73631 7.49511,-4.73633 1.22069,2e-5 2.27049,0.30927 3.14942,0.92773 0.87888,0.60224 1.57875,1.60321 2.09961,3.00293 0.35805,0.97658 0.53708,2.47398 0.53711,4.49219 l 0,9.5459 c -3e-5,1.41602 0.11391,2.3763 0.34179,2.88086 0.17902,0.4069 0.46385,0.72428 0.85449,0.95215 0.40688,0.22786 1.14744,0.3418 2.22168,0.34179 l 0,0.87891 -11.05957,0 0,-0.87891 0.46387,0 c 1.04165,1e-5 1.76594,-0.15462 2.17285,-0.46386 0.42316,-0.32552 0.71613,-0.79753 0.87891,-1.41602 0.0651,-0.24414 0.0976,-1.00911 0.0977,-2.29492 l 0,-9.15527 c -2e-5,-2.03449 -0.26858,-3.50747 -0.80567,-4.41895 -0.52085,-0.92771 -1.40789,-1.39158 -2.66113,-1.3916 -1.93686,2e-5 -3.86557,1.05796 -5.78613,3.17383 l 0,11.79199 c -1e-5,1.51368 0.0895,2.44955 0.26855,2.80762 0.22786,0.472 0.5371,0.82194 0.92773,1.0498 0.4069,0.21159 1.2207,0.31739 2.44141,0.31738 l 0,0.87891 -11.05957,0 0,-0.87891 0.48828,0 c 1.13932,1e-5 1.9043,-0.28482 2.29492,-0.85449 0.4069,-0.58593 0.61035,-1.6927 0.61036,-3.32031 l 0,-8.30078 c -10e-6,-2.68553 -0.0651,-4.32127 -0.19532,-4.90723 -0.11393,-0.58592 -0.30111,-0.98468 -0.56152,-1.19629 -0.24414,-0.21157 -0.5778,-0.31736 -1.00098,-0.31738 -0.45573,2e-5 -1.00098,0.12209 -1.63574,0.36621 l -0.36621,-0.87891 6.73828,-2.73437 1.04981,0 0,4.73633"
         style="marker:none;font-family:Times New Roman;-inkscape-font-specification:Times New Roman"
         id="path3075" />
      <path
         d="m 364.87359,478.84946 0,7.34863 5.22461,0 0,1.70898 -5.22461,0 0,14.50196 c -10e-6,1.44857 0.20344,2.42513 0.61035,2.92968 0.42317,0.50456 0.96028,0.75684 1.61133,0.75684 0.5371,0 1.05793,-0.16276 1.5625,-0.48828 0.50454,-0.34179 0.89517,-0.83821 1.17187,-1.48926 l 0.95215,0 c -0.56967,1.59506 -1.37534,2.79948 -2.41699,3.61328 -1.04168,0.79753 -2.1159,1.19629 -3.22266,1.19629 -0.7487,0 -1.48112,-0.20345 -2.19726,-0.61035 -0.71615,-0.42318 -1.24512,-1.01725 -1.58692,-1.78223 -0.3418,-0.78124 -0.5127,-1.97753 -0.51269,-3.58886 l 0,-15.03907 -3.54004,0 0,-0.80566 c 0.89518,-0.35805 1.80664,-0.96026 2.73437,-1.80664 0.94401,-0.86261 1.78223,-1.87986 2.51465,-3.05176 0.37435,-0.61846 0.89518,-1.74964 1.5625,-3.39355 l 0.75684,0"
         style="marker:none;font-family:Times New Roman;-inkscape-font-specification:Times New Roman"
         id="path3077" />
      <path
         d="m 374.19967,516.88657 0,-1.07422 c 1.67643,-0.55339 2.97037,-1.41602 3.88183,-2.58789 0.92773,-1.15561 1.3916,-2.38445 1.39161,-3.68653 -1e-5,-0.30924 -0.0733,-0.56966 -0.21973,-0.78125 -0.11394,-0.14648 -0.22787,-0.21972 -0.3418,-0.21972 -0.17904,0 -0.56967,0.16276 -1.17187,0.48828 -0.29298,0.14648 -0.60222,0.21972 -0.92774,0.21972 -0.79753,0 -1.43229,-0.236 -1.90429,-0.708 -0.47201,-0.47201 -0.70801,-1.12305 -0.70801,-1.95313 0,-0.79752 0.3011,-1.48111 0.90332,-2.05078 0.61848,-0.56966 1.36718,-0.85449 2.24609,-0.85449 1.07421,0 2.02636,0.47201 2.85645,1.41601 0.84634,0.92774 1.26952,2.16472 1.26953,3.71094 -10e-6,1.67643 -0.58595,3.23079 -1.75781,4.66309 -1.15561,1.44856 -2.9948,2.58788 -5.51758,3.41797"
         style="marker:none;font-family:Times New Roman;-inkscape-font-specification:Times New Roman"
         id="path3079" />
      <path
         d="m 413.60384,507.65805 0,0.90332 -14.18457,0 0,-0.90332 1.17188,0 c 1.36718,0 2.36002,-0.39876 2.97851,-1.19629 0.39062,-0.52083 0.58594,-1.77408 0.58594,-3.75976 l 0,-21.38672 c 0,-1.67641 -0.1058,-2.78318 -0.31738,-3.32032 -0.16277,-0.40687 -0.49643,-0.7568 -1.00098,-1.0498 -0.71615,-0.39059 -1.46484,-0.58591 -2.24609,-0.58594 l -1.17188,0 0,-0.90332 14.18457,0 0,0.90332 -1.19629,0 c -1.35092,3e-5 -2.33562,0.3988 -2.9541,1.19629 -0.40691,0.52087 -0.61036,1.77412 -0.61035,3.75977 l 0,21.38672 c -10e-6,1.67643 0.10578,2.7832 0.31738,3.32031 0.16275,0.4069 0.50455,0.75684 1.02539,1.0498 0.69986,0.39063 1.44042,0.58594 2.22168,0.58594 l 1.19629,0"
         style="marker:none;font-family:Times New Roman;-inkscape-font-specification:Times New Roman"
         id="path3081" />
      <path
         d="m 423.78439,490.27524 c 2.62043,-3.15753 5.1188,-4.73631 7.49511,-4.73633 1.22069,2e-5 2.27049,0.30927 3.14942,0.92773 0.87888,0.60224 1.57875,1.60321 2.09961,3.00293 0.35805,0.97658 0.53708,2.47398 0.53711,4.49219 l 0,9.5459 c -3e-5,1.41602 0.11391,2.3763 0.34179,2.88086 0.17902,0.4069 0.46385,0.72428 0.85449,0.95215 0.40688,0.22786 1.14744,0.3418 2.22168,0.34179 l 0,0.87891 -11.05957,0 0,-0.87891 0.46387,0 c 1.04165,1e-5 1.76594,-0.15462 2.17285,-0.46386 0.42316,-0.32552 0.71613,-0.79753 0.87891,-1.41602 0.0651,-0.24414 0.0976,-1.00911 0.0977,-2.29492 l 0,-9.15527 c -2e-5,-2.03449 -0.26858,-3.50747 -0.80567,-4.41895 -0.52085,-0.92771 -1.40789,-1.39158 -2.66113,-1.3916 -1.93686,2e-5 -3.86557,1.05796 -5.78613,3.17383 l 0,11.79199 c -10e-6,1.51368 0.0895,2.44955 0.26855,2.80762 0.22786,0.472 0.5371,0.82194 0.92773,1.0498 0.4069,0.21159 1.2207,0.31739 2.44141,0.31738 l 0,0.87891 -11.05957,0 0,-0.87891 0.48828,0 c 1.13932,1e-5 1.9043,-0.28482 2.29492,-0.85449 0.4069,-0.58593 0.61035,-1.6927 0.61036,-3.32031 l 0,-8.30078 c -1e-5,-2.68553 -0.0651,-4.32127 -0.19532,-4.90723 -0.11393,-0.58592 -0.30111,-0.98468 -0.56152,-1.19629 -0.24414,-0.21157 -0.5778,-0.31736 -1.00098,-0.31738 -0.45573,2e-5 -1.00097,0.12209 -1.63574,0.36621 l -0.36621,-0.87891 6.73828,-2.73437 1.04981,0 0,4.73633"
         style="marker:none;font-family:Times New Roman;-inkscape-font-specification:Times New Roman"
         id="path3083" />
      <path
         d="m 449.58999,478.84946 0,7.34863 5.22461,0 0,1.70898 -5.22461,0 0,14.50196 c -10e-6,1.44857 0.20344,2.42513 0.61035,2.92968 0.42317,0.50456 0.96028,0.75684 1.61133,0.75684 0.5371,0 1.05793,-0.16276 1.5625,-0.48828 0.50454,-0.34179 0.89517,-0.83821 1.17187,-1.48926 l 0.95215,0 c -0.56967,1.59506 -1.37534,2.79948 -2.41699,3.61328 -1.04168,0.79753 -2.1159,1.19629 -3.22266,1.19629 -0.7487,0 -1.48112,-0.20345 -2.19726,-0.61035 -0.71615,-0.42318 -1.24512,-1.01725 -1.58692,-1.78223 -0.3418,-0.78124 -0.5127,-1.97753 -0.51269,-3.58886 l 0,-15.03907 -3.54004,0 0,-0.80566 c 0.89518,-0.35805 1.80664,-0.96026 2.73437,-1.80664 0.94401,-0.86261 1.78223,-1.87986 2.51465,-3.05176 0.37435,-0.61846 0.89518,-1.74964 1.5625,-3.39355 l 0.75684,0"
         style="marker:none;font-family:Times New Roman;-inkscape-font-specification:Times New Roman"
         id="path3085" />
      <path
         d="m 461.55282,494.62094 c -0.0163,3.32032 0.78938,5.92449 2.41699,7.8125 1.6276,1.88803 3.54003,2.83204 5.73731,2.83203 1.46482,1e-5 2.73435,-0.39876 3.80859,-1.19629 1.09048,-0.81379 2.00193,-2.19726 2.73437,-4.15039 l 0.75684,0.48828 c -0.34182,2.22983 -1.33465,4.26433 -2.97852,6.10352 -1.64389,1.82292 -3.70281,2.73437 -6.17675,2.73437 -2.68556,0 -4.98862,-1.04166 -6.90918,-3.125 -1.9043,-2.0996 -2.85645,-4.91535 -2.85645,-8.44726 0,-3.82486 0.97656,-6.80337 2.92969,-8.93555 1.96939,-2.14841 4.43521,-3.22263 7.39746,-3.22265 2.5065,2e-5 4.56541,0.8301 6.17676,2.49023 1.61131,1.6439 2.41697,3.8493 2.41699,6.61621 l -15.4541,0 m 0,-1.41601 10.35156,0 c -0.0814,-1.43228 -0.25229,-2.44139 -0.51269,-3.02735 -0.40692,-0.91144 -1.01727,-1.62758 -1.83106,-2.14844 -0.79754,-0.52081 -1.63575,-0.78122 -2.51465,-0.78125 -1.35092,3e-5 -2.56348,0.529 -3.63769,1.58692 -1.05795,1.04168 -1.67644,2.49839 -1.85547,4.37012"
         style="marker:none;font-family:Times New Roman;-inkscape-font-specification:Times New Roman"
         id="path3087" />
      <path
         d="m 486.77242,500.40707 c -1.36719,-0.6673 -2.41699,-1.59504 -3.14941,-2.7832 -0.73243,-1.20441 -1.09864,-2.53091 -1.09863,-3.97949 -1e-5,-2.21353 0.83007,-4.11782 2.49023,-5.71289 1.67643,-1.59503 3.81672,-2.39256 6.4209,-2.39258 2.13215,2e-5 3.97947,0.52086 5.54199,1.5625 l 4.73633,0 c 0.69985,2e-5 1.10675,0.0244 1.2207,0.0732 0.11391,0.0326 0.19529,0.0977 0.24414,0.19531 0.0976,0.14651 0.14646,0.40693 0.14649,0.78125 -3e-5,0.4232 -0.0407,0.71617 -0.12207,0.87891 -0.0489,0.0814 -0.13837,0.1465 -0.26856,0.19531 -0.11395,0.0488 -0.52085,0.0733 -1.2207,0.0732 l -2.90527,0 c 0.91143,1.17189 1.36716,2.66928 1.36718,4.49218 -2e-5,2.08335 -0.79754,3.86557 -2.39258,5.34668 -1.59506,1.48113 -3.73536,2.22169 -6.42089,2.22168 -1.10679,1e-5 -2.23797,-0.16275 -3.39356,-0.48828 -0.71615,0.6185 -1.20443,1.16374 -1.46484,1.63574 -0.24415,0.45574 -0.36622,0.84636 -0.36621,1.17188 -10e-6,0.2767 0.1302,0.54525 0.39062,0.80566 0.27669,0.26042 0.80566,0.4476 1.58692,0.56153 0.45572,0.0651 1.59504,0.12207 3.41796,0.17089 3.35285,0.0814 5.5257,0.19532 6.51856,0.3418 1.51365,0.21159 2.71808,0.77312 3.61328,1.68457 0.91144,0.91146 1.36716,2.03451 1.36719,3.36914 -3e-5,1.83919 -0.86265,3.56445 -2.58789,5.17578 -2.53908,2.3763 -5.85125,3.56445 -9.93653,3.56446 -3.14128,-10e-6 -5.79427,-0.70802 -7.95898,-2.12403 -1.22071,-0.81381 -1.83106,-1.66016 -1.83105,-2.53906 -10e-6,-0.39063 0.0895,-0.78125 0.26855,-1.17187 0.27669,-0.60222 0.84635,-1.44044 1.70898,-2.51465 0.11393,-0.14649 0.94401,-1.02539 2.49024,-2.63672 -0.84636,-0.50456 -1.44857,-0.95215 -1.80664,-1.34278 -0.3418,-0.40689 -0.5127,-0.86262 -0.5127,-1.36718 0,-0.56966 0.22786,-1.23698 0.6836,-2.00196 0.472,-0.76496 1.54621,-1.84732 3.22265,-3.24707 m 4.24805,-13.69629 c -1.20444,3e-5 -2.21355,0.48017 -3.02734,1.44043 -0.81381,0.96031 -1.22071,2.43329 -1.22071,4.41895 0,2.57163 0.55338,4.56544 1.66016,5.98145 0.84634,1.07422 1.92056,1.61133 3.22266,1.61132 1.23696,10e-6 2.25421,-0.46385 3.05175,-1.3916 0.79751,-0.92772 1.19628,-2.38443 1.19629,-4.37012 -10e-6,-2.58787 -0.56154,-4.61423 -1.68457,-6.0791 -0.83009,-1.07419 -1.89617,-1.6113 -3.19824,-1.61133 m -4.49219,21.85059 c -0.76498,0.83008 -1.34278,1.60319 -1.7334,2.31934 -0.39063,0.71614 -0.58594,1.37532 -0.58593,1.97754 -1e-5,0.78124 0.472,1.46483 1.41601,2.05078 1.6276,1.0091 3.97948,1.51366 7.05567,1.51367 2.92967,-10e-6 5.08624,-0.52084 6.46972,-1.5625 1.39972,-1.0254 2.09959,-2.12403 2.09961,-3.2959 -2e-5,-0.84636 -0.41506,-1.44857 -1.24512,-1.80664 -0.84637,-0.35807 -2.5228,-0.56966 -5.02929,-0.63477 -3.66212,-0.0976 -6.47788,-0.28483 -8.44727,-0.56152"
         style="marker:none;font-family:Times New Roman;-inkscape-font-specification:Times New Roman"
         id="path3089" />
      <path
         d="m 513.16396,485.53891 0,5.0293 c 1.87174,-3.35285 3.79231,-5.02928 5.76172,-5.0293 0.89517,2e-5 1.63573,0.27672 2.22168,0.83008 0.58592,0.53713 0.87889,1.16376 0.87891,1.87988 -2e-5,0.63479 -0.21161,1.17189 -0.63477,1.61133 -0.42319,0.43947 -0.92775,0.6592 -1.51367,0.65918 -0.56968,2e-5 -1.21258,-0.27668 -1.92871,-0.83008 -0.69988,-0.56964 -1.22072,-0.85447 -1.5625,-0.85449 -0.29298,2e-5 -0.61036,0.16278 -0.95215,0.48828 -0.73243,0.66734 -1.48927,1.76597 -2.27051,3.2959 l 0,10.71777 c 0,1.23698 0.15462,2.17286 0.46387,2.80762 0.21158,0.43945 0.58593,0.80566 1.12305,1.09863 0.5371,0.29297 1.31021,0.43946 2.31933,0.43945 l 0,0.87891 -11.45019,0 0,-0.87891 c 1.13932,1e-5 1.98567,-0.17903 2.53906,-0.5371 0.4069,-0.26042 0.69173,-0.67546 0.85449,-1.24512 0.0814,-0.27669 0.12207,-1.06608 0.12207,-2.36817 l 0,-8.66699 c 0,-2.60415 -0.057,-4.15037 -0.1709,-4.63867 -0.0977,-0.50454 -0.29297,-0.87075 -0.58593,-1.09863 -0.2767,-0.22785 -0.62663,-0.34178 -1.04981,-0.3418 -0.50456,2e-5 -1.07422,0.12209 -1.70898,0.36621 l -0.24414,-0.87891 6.76269,-2.73437 1.02539,0"
         style="marker:none;font-family:Times New Roman;-inkscape-font-specification:Times New Roman"
         id="path3091" />
      <path
         d="m 536.82113,505.33871 c -2.29493,1.77409 -3.73536,2.79948 -4.32129,3.07618 -0.87892,0.4069 -1.81479,0.61035 -2.80762,0.61035 -1.54623,0 -2.82389,-0.52897 -3.83301,-1.58692 -0.99284,-1.05794 -1.48925,-2.44954 -1.48925,-4.1748 0,-1.09049 0.24414,-2.0345 0.73242,-2.83203 0.66731,-1.10676 1.82291,-2.14843 3.4668,-3.125 1.66014,-0.97655 4.41079,-2.1647 8.25195,-3.56446 l 0,-0.8789 c -2e-5,-2.2298 -0.35809,-3.75975 -1.07422,-4.58985 -0.69988,-0.83005 -1.72527,-1.24509 -3.07617,-1.24511 -1.0254,2e-5 -1.8392,0.27671 -2.44141,0.83008 -0.61849,0.5534 -0.92774,1.18817 -0.92773,1.90429 l 0.0488,1.41602 c -10e-6,0.74871 -0.19532,1.32651 -0.58594,1.7334 -0.37436,0.40691 -0.87078,0.61036 -1.48926,0.61035 -0.60222,10e-6 -1.09864,-0.21157 -1.48926,-0.63477 -0.37435,-0.42316 -0.56152,-1.00096 -0.56152,-1.7334 0,-1.39972 0.71614,-2.68552 2.14844,-3.85742 1.43228,-1.17185 3.44237,-1.75779 6.03027,-1.75781 1.98566,2e-5 3.61327,0.33368 4.88281,1.00098 0.96027,0.50458 1.66828,1.29396 2.12403,2.36816 0.29295,0.69989 0.43943,2.13218 0.43945,4.29688 l 0,7.59277 c -2e-5,2.13217 0.0407,3.44239 0.12207,3.93066 0.0814,0.47201 0.21157,0.78939 0.39062,0.95215 0.1953,0.16276 0.41502,0.24414 0.65918,0.24414 0.2604,0 0.48827,-0.057 0.6836,-0.1709 0.34177,-0.21158 1.00095,-0.80566 1.97754,-1.78222 l 0,1.36718 c -1.82294,2.44141 -3.56447,3.66211 -5.22461,3.66211 -0.79754,0 -1.43231,-0.27669 -1.9043,-0.83007 -0.47202,-0.55339 -0.71616,-1.4974 -0.73242,-2.83204 m 0,-1.58691 0,-8.52051 c -2.4577,0.97658 -4.04461,1.66831 -4.76074,2.0752 -1.28582,0.71615 -2.20541,1.46485 -2.75879,2.24609 -0.55339,0.78126 -0.83009,1.63575 -0.83008,2.56348 -1e-5,1.17188 0.34993,2.14844 1.0498,2.92969 0.69987,0.76497 1.50553,1.14746 2.417,1.14746 1.23696,0 2.86457,-0.8138 4.88281,-2.44141"
         style="marker:none;font-family:Times New Roman;-inkscape-font-specification:Times New Roman"
         id="path3093" />
      <path
         d="m 553.64236,478.84946 0,7.34863 5.22461,0 0,1.70898 -5.22461,0 0,14.50196 c -1e-5,1.44857 0.20344,2.42513 0.61035,2.92968 0.42317,0.50456 0.96028,0.75684 1.61133,0.75684 0.5371,0 1.05793,-0.16276 1.5625,-0.48828 0.50454,-0.34179 0.89517,-0.83821 1.17187,-1.48926 l 0.95215,0 c -0.56967,1.59506 -1.37534,2.79948 -2.41699,3.61328 -1.04168,0.79753 -2.1159,1.19629 -3.22266,1.19629 -0.7487,0 -1.48113,-0.20345 -2.19726,-0.61035 -0.71616,-0.42318 -1.24513,-1.01725 -1.58692,-1.78223 -0.3418,-0.78124 -0.5127,-1.97753 -0.51269,-3.58886 l 0,-15.03907 -3.54004,0 0,-0.80566 c 0.89518,-0.35805 1.80664,-0.96026 2.73437,-1.80664 0.94401,-0.86261 1.78222,-1.87986 2.51465,-3.05176 0.37434,-0.61846 0.89518,-1.74964 1.5625,-3.39355 l 0.75684,0"
         style="marker:none;font-family:Times New Roman;-inkscape-font-specification:Times New Roman"
         id="path3095" />
      <path
         d="m 567.53384,473.84457 c 0.68358,4e-5 1.26138,0.24418 1.73339,0.73243 0.48828,0.47203 0.73242,1.04983 0.73243,1.73339 -10e-6,0.68363 -0.24415,1.26957 -0.73243,1.75782 -0.47201,0.48831 -1.04981,0.73245 -1.73339,0.73242 -0.6836,3e-5 -1.26954,-0.24411 -1.75782,-0.73242 -0.48828,-0.48825 -0.73242,-1.07419 -0.73242,-1.75782 0,-0.68356 0.236,-1.26136 0.70801,-1.73339 0.48828,-0.48825 1.08235,-0.73239 1.78223,-0.73243 m 2.02636,11.69434 0,17.96875 c -10e-6,1.39974 0.0977,2.33561 0.29297,2.80762 0.21158,0.45573 0.51269,0.79752 0.90332,1.02539 0.40689,0.22786 1.13931,0.3418 2.19727,0.34179 l 0,0.87891 -10.86426,0 0,-0.87891 c 1.09049,1e-5 1.82291,-0.10579 2.19727,-0.31738 0.37434,-0.21159 0.66731,-0.56152 0.8789,-1.0498 0.22786,-0.48828 0.34179,-1.42415 0.3418,-2.80762 l 0,-8.61816 c -10e-6,-2.42512 -0.0733,-3.99575 -0.21973,-4.71192 -0.11393,-0.52081 -0.29297,-0.87889 -0.53711,-1.07422 -0.24414,-0.21157 -0.5778,-0.31736 -1.00097,-0.31738 -0.45574,2e-5 -1.00912,0.12209 -1.66016,0.36621 l -0.3418,-0.87891 6.73828,-2.73437 1.07422,0"
         style="marker:none;font-family:Times New Roman;-inkscape-font-specification:Times New Roman"
         id="path3097" />
      <path
         d="m 587.48006,485.53891 c 3.38541,2e-5 6.1035,1.28583 8.1543,3.85742 1.74152,2.19728 2.61228,4.72007 2.61231,7.56836 -3e-5,2.00196 -0.48017,4.02833 -1.44043,6.0791 -0.96031,2.05079 -2.28681,3.59701 -3.9795,4.63867 -1.67644,1.04167 -3.54819,1.5625 -5.61523,1.5625 -3.36915,0 -6.04656,-1.34277 -8.03223,-4.02832 -1.67643,-2.26236 -2.51465,-4.80142 -2.51465,-7.61718 0,-2.05077 0.50456,-4.08527 1.51368,-6.10352 1.02538,-2.03448 2.36816,-3.53188 4.02832,-4.49219 1.66014,-0.97654 3.41795,-1.46482 5.27343,-1.46484 m -0.75683,1.58691 c -0.86264,3e-5 -1.73341,0.26044 -2.61231,0.78125 -0.86263,0.50458 -1.5625,1.39976 -2.09961,2.68555 -0.53711,1.28582 -0.80567,2.93784 -0.80566,4.95606 -10e-6,3.25521 0.6429,6.06283 1.92871,8.42285 1.30208,2.36003 3.01106,3.54004 5.12695,3.54004 1.57877,0 2.88085,-0.65104 3.90625,-1.95313 1.02538,-1.30208 1.53807,-3.54003 1.53809,-6.71387 -2e-5,-3.97134 -0.85451,-7.09633 -2.56348,-9.375 -1.15561,-1.56248 -2.62859,-2.34372 -4.41894,-2.34375"
         style="marker:none;font-family:Times New Roman;-inkscape-font-specification:Times New Roman"
         id="path3099" />
      <path
         d="m 608.89114,490.27524 c 2.62043,-3.15753 5.1188,-4.73631 7.49511,-4.73633 1.22069,2e-5 2.27049,0.30927 3.14942,0.92773 0.87888,0.60224 1.57875,1.60321 2.09961,3.00293 0.35805,0.97658 0.53708,2.47398 0.53711,4.49219 l 0,9.5459 c -3e-5,1.41602 0.11391,2.3763 0.34179,2.88086 0.17902,0.4069 0.46385,0.72428 0.8545,0.95215 0.40687,0.22786 1.14743,0.3418 2.22167,0.34179 l 0,0.87891 -11.05957,0 0,-0.87891 0.46387,0 c 1.04165,1e-5 1.76594,-0.15462 2.17285,-0.46386 0.42316,-0.32552 0.71613,-0.79753 0.87891,-1.41602 0.0651,-0.24414 0.0976,-1.00911 0.0977,-2.29492 l 0,-9.15527 c -2e-5,-2.03449 -0.26858,-3.50747 -0.80567,-4.41895 -0.52085,-0.92771 -1.40789,-1.39158 -2.66113,-1.3916 -1.93686,2e-5 -3.86557,1.05796 -5.78613,3.17383 l 0,11.79199 c -10e-6,1.51368 0.0895,2.44955 0.26855,2.80762 0.22786,0.472 0.5371,0.82194 0.92774,1.0498 0.40689,0.21159 1.22069,0.31739 2.4414,0.31738 l 0,0.87891 -11.05957,0 0,-0.87891 0.48828,0 c 1.13932,1e-5 1.9043,-0.28482 2.29492,-0.85449 0.4069,-0.58593 0.61035,-1.6927 0.61036,-3.32031 l 0,-8.30078 c -1e-5,-2.68553 -0.0651,-4.32127 -0.19532,-4.90723 -0.11393,-0.58592 -0.30111,-0.98468 -0.56152,-1.19629 -0.24414,-0.21157 -0.5778,-0.31736 -1.00098,-0.31738 -0.45573,2e-5 -1.00097,0.12209 -1.63574,0.36621 l -0.36621,-0.87891 6.73828,-2.73437 1.04981,0 0,4.73633"
         style="marker:none;font-family:Times New Roman;-inkscape-font-specification:Times New Roman"
         id="path3101" />
      <path
         d="m 629.32558,516.88657 0,-1.07422 c 1.67643,-0.55339 2.97038,-1.41602 3.88184,-2.58789 0.92773,-1.15561 1.39159,-2.38445 1.3916,-3.68653 -10e-6,-0.30924 -0.0733,-0.56966 -0.21972,-0.78125 -0.11394,-0.14648 -0.22788,-0.21972 -0.3418,-0.21972 -0.17905,0 -0.56967,0.16276 -1.17188,0.48828 -0.29297,0.14648 -0.60222,0.21972 -0.92773,0.21972 -0.79753,0 -1.4323,-0.236 -1.9043,-0.708 -0.47201,-0.47201 -0.70801,-1.12305 -0.70801,-1.95313 0,-0.79752 0.30111,-1.48111 0.90332,-2.05078 0.61849,-0.56966 1.36719,-0.85449 2.2461,-0.85449 1.07421,0 2.02636,0.47201 2.85644,1.41601 0.84635,0.92774 1.26953,2.16472 1.26954,3.71094 -1e-5,1.67643 -0.58595,3.23079 -1.75782,4.66309 -1.1556,1.44856 -2.99479,2.58788 -5.51758,3.41797"
         style="marker:none;font-family:Times New Roman;-inkscape-font-specification:Times New Roman"
         id="path3103" />
      <path
         d="m 668.71975,507.65805 0,0.90332 -14.18457,0 0,-0.90332 1.17187,0 c 1.36719,0 2.36003,-0.39876 2.97852,-1.19629 0.39062,-0.52083 0.58593,-1.77408 0.58594,-3.75976 l 0,-21.38672 c -1e-5,-1.67641 -0.1058,-2.78318 -0.31739,-3.32032 -0.16276,-0.40687 -0.49642,-0.7568 -1.00097,-1.0498 -0.71615,-0.39059 -1.46485,-0.58591 -2.2461,-0.58594 l -1.17187,0 0,-0.90332 14.18457,0 0,0.90332 -1.19629,0 c -1.35092,3e-5 -2.33562,0.3988 -2.9541,1.19629 -0.40691,0.52087 -0.61036,1.77412 -0.61035,3.75977 l 0,21.38672 c -1e-5,1.67643 0.10578,2.7832 0.31738,3.32031 0.16275,0.4069 0.50455,0.75684 1.02539,1.0498 0.69986,0.39063 1.44042,0.58594 2.22168,0.58594 l 1.19629,0"
         style="marker:none;font-family:Times New Roman;-inkscape-font-specification:Times New Roman"
         id="path3105" />
      <path
         d="m 678.90035,490.27524 c 2.62043,-3.15753 5.1188,-4.73631 7.49512,-4.73633 1.22069,2e-5 2.27049,0.30927 3.14941,0.92773 0.87889,0.60224 1.57876,1.60321 2.09961,3.00293 0.35805,0.97658 0.53709,2.47398 0.53711,4.49219 l 0,9.5459 c -2e-5,1.41602 0.11391,2.3763 0.3418,2.88086 0.17901,0.4069 0.46384,0.72428 0.85449,0.95215 0.40688,0.22786 1.14744,0.3418 2.22168,0.34179 l 0,0.87891 -11.05957,0 0,-0.87891 0.46387,0 c 1.04165,1e-5 1.76593,-0.15462 2.17285,-0.46386 0.42316,-0.32552 0.71613,-0.79753 0.87891,-1.41602 0.0651,-0.24414 0.0976,-1.00911 0.0977,-2.29492 l 0,-9.15527 c -2e-5,-2.03449 -0.26857,-3.50747 -0.80566,-4.41895 -0.52085,-0.92771 -1.40789,-1.39158 -2.66113,-1.3916 -1.93687,2e-5 -3.86557,1.05796 -5.78614,3.17383 l 0,11.79199 c -10e-6,1.51368 0.0895,2.44955 0.26856,2.80762 0.22785,0.472 0.5371,0.82194 0.92773,1.0498 0.40689,0.21159 1.22069,0.31739 2.44141,0.31738 l 0,0.87891 -11.05957,0 0,-0.87891 0.48828,0 c 1.13932,1e-5 1.90429,-0.28482 2.29492,-0.85449 0.4069,-0.58593 0.61035,-1.6927 0.61035,-3.32031 l 0,-8.30078 c 0,-2.68553 -0.0651,-4.32127 -0.19531,-4.90723 -0.11394,-0.58592 -0.30111,-0.98468 -0.56152,-1.19629 -0.24415,-0.21157 -0.57781,-0.31736 -1.00098,-0.31738 -0.45573,2e-5 -1.00098,0.12209 -1.63574,0.36621 l -0.36621,-0.87891 6.73828,-2.73437 1.0498,0 0,4.73633"
         style="marker:none;font-family:Times New Roman;-inkscape-font-specification:Times New Roman"
         id="path3107" />
      <path
         d="m 704.70596,478.84946 0,7.34863 5.2246,0 0,1.70898 -5.2246,0 0,14.50196 c -10e-6,1.44857 0.20344,2.42513 0.61035,2.92968 0.42317,0.50456 0.96027,0.75684 1.61133,0.75684 0.53709,0 1.05793,-0.16276 1.5625,-0.48828 0.50454,-0.34179 0.89516,-0.83821 1.17187,-1.48926 l 0.95215,0 c -0.56968,1.59506 -1.37534,2.79948 -2.41699,3.61328 -1.04168,0.79753 -2.1159,1.19629 -3.22266,1.19629 -0.74871,0 -1.48113,-0.20345 -2.19727,-0.61035 -0.71615,-0.42318 -1.24512,-1.01725 -1.58691,-1.78223 -0.3418,-0.78124 -0.5127,-1.97753 -0.51269,-3.58886 l 0,-15.03907 -3.54004,0 0,-0.80566 c 0.89518,-0.35805 1.80663,-0.96026 2.73437,-1.80664 0.94401,-0.86261 1.78222,-1.87986 2.51465,-3.05176 0.37434,-0.61846 0.89518,-1.74964 1.5625,-3.39355 l 0.75684,0"
         style="marker:none;font-family:Times New Roman;-inkscape-font-specification:Times New Roman"
         id="path3109" />
      <path
         d="m 716.66872,494.62094 c -0.0163,3.32032 0.78939,5.92449 2.417,7.8125 1.62759,1.88803 3.54002,2.83204 5.7373,2.83203 1.46483,1e-5 2.73436,-0.39876 3.80859,-1.19629 1.09048,-0.81379 2.00194,-2.19726 2.73438,-4.15039 l 0.75684,0.48828 c -0.34182,2.22983 -1.33466,4.26433 -2.97852,6.10352 -1.6439,1.82292 -3.70281,2.73437 -6.17676,2.73437 -2.68555,0 -4.98861,-1.04166 -6.90918,-3.125 -1.9043,-2.0996 -2.85644,-4.91535 -2.85644,-8.44726 0,-3.82486 0.97656,-6.80337 2.92968,-8.93555 1.9694,-2.14841 4.43522,-3.22263 7.39747,-3.22265 2.50649,2e-5 4.56541,0.8301 6.17675,2.49023 1.61131,1.6439 2.41697,3.8493 2.417,6.61621 l -15.45411,0 m 0,-1.41601 10.35157,0 c -0.0814,-1.43228 -0.2523,-2.44139 -0.5127,-3.02735 -0.40691,-0.91144 -1.01727,-1.62758 -1.83105,-2.14844 -0.79754,-0.52081 -1.63576,-0.78122 -2.51465,-0.78125 -1.35092,3e-5 -2.56349,0.529 -3.6377,1.58692 -1.05795,1.04168 -1.67643,2.49839 -1.85547,4.37012"
         style="marker:none;font-family:Times New Roman;-inkscape-font-specification:Times New Roman"
         id="path3111" />
      <path
         d="m 743.59737,473.84457 0,29.66309 c -10e-6,1.39974 0.0977,2.32748 0.29297,2.7832 0.21158,0.45573 0.52896,0.80567 0.95215,1.04981 0.42317,0.22786 1.21255,0.3418 2.36817,0.34179 l 0,0.87891 -10.96192,0 0,-0.87891 c 1.02539,1e-5 1.72526,-0.10579 2.09961,-0.31738 0.37435,-0.21159 0.66731,-0.56152 0.87891,-1.0498 0.21158,-0.48828 0.31737,-1.42415 0.31738,-2.80762 l 0,-20.3125 c -10e-6,-2.52276 -0.057,-4.06898 -0.1709,-4.63867 -0.11394,-0.58591 -0.30111,-0.98467 -0.56152,-1.19629 -0.24415,-0.21156 -0.56153,-0.31735 -0.95215,-0.31738 -0.42318,3e-5 -0.96029,0.13024 -1.61133,0.39062 l -0.41504,-0.85449 6.66504,-2.73438 1.09863,0"
         style="marker:none;font-family:Times New Roman;-inkscape-font-specification:Times New Roman"
         id="path3113" />
      <path
         d="m 758.29458,473.84457 0,29.66309 c -10e-6,1.39974 0.0977,2.32748 0.29297,2.7832 0.21158,0.45573 0.52896,0.80567 0.95215,1.04981 0.42316,0.22786 1.21255,0.3418 2.36816,0.34179 l 0,0.87891 -10.96191,0 0,-0.87891 c 1.02538,1e-5 1.72525,-0.10579 2.09961,-0.31738 0.37434,-0.21159 0.66731,-0.56152 0.8789,-1.0498 0.21158,-0.48828 0.31738,-1.42415 0.31738,-2.80762 l 0,-20.3125 c 0,-2.52276 -0.057,-4.06898 -0.17089,-4.63867 -0.11394,-0.58591 -0.30112,-0.98467 -0.56153,-1.19629 -0.24414,-0.21156 -0.56153,-0.31735 -0.95215,-0.31738 -0.42318,3e-5 -0.96029,0.13024 -1.61132,0.39062 l -0.41504,-0.85449 6.66504,-2.73438 1.09863,0"
         style="marker:none;font-family:Times New Roman;-inkscape-font-specification:Times New Roman"
         id="path3115" />
      <path
         d="m 770.98977,473.84457 c 0.68358,4e-5 1.26138,0.24418 1.7334,0.73243 0.48827,0.47203 0.73241,1.04983 0.73242,1.73339 -10e-6,0.68363 -0.24415,1.26957 -0.73242,1.75782 -0.47202,0.48831 -1.04982,0.73245 -1.7334,0.73242 -0.6836,3e-5 -1.26954,-0.24411 -1.75781,-0.73242 -0.48829,-0.48825 -0.73243,-1.07419 -0.73243,-1.75782 0,-0.68356 0.236,-1.26136 0.70801,-1.73339 0.48828,-0.48825 1.08235,-0.73239 1.78223,-0.73243 m 2.02637,11.69434 0,17.96875 c -10e-6,1.39974 0.0976,2.33561 0.29296,2.80762 0.21158,0.45573 0.51269,0.79752 0.90333,1.02539 0.40689,0.22786 1.13931,0.3418 2.19726,0.34179 l 0,0.87891 -10.86426,0 0,-0.87891 c 1.09049,1e-5 1.82292,-0.10579 2.19727,-0.31738 0.37434,-0.21159 0.66731,-0.56152 0.8789,-1.0498 0.22786,-0.48828 0.3418,-1.42415 0.3418,-2.80762 l 0,-8.61816 c 0,-2.42512 -0.0733,-3.99575 -0.21972,-4.71192 -0.11394,-0.52081 -0.29298,-0.87889 -0.53711,-1.07422 -0.24415,-0.21157 -0.57781,-0.31736 -1.00098,-0.31738 -0.45573,2e-5 -1.00912,0.12209 -1.66016,0.36621 l -0.34179,-0.87891 6.73828,-2.73437 1.07422,0"
         style="marker:none;font-family:Times New Roman;-inkscape-font-specification:Times New Roman"
         id="path3117" />
      <path
         d="m 785.97994,500.40707 c -1.36719,-0.6673 -2.41699,-1.59504 -3.14941,-2.7832 -0.73243,-1.20441 -1.09864,-2.53091 -1.09863,-3.97949 -10e-6,-2.21353 0.83007,-4.11782 2.49023,-5.71289 1.67642,-1.59503 3.81672,-2.39256 6.4209,-2.39258 2.13215,2e-5 3.97947,0.52086 5.54199,1.5625 l 4.73633,0 c 0.69985,2e-5 1.10675,0.0244 1.2207,0.0732 0.11391,0.0326 0.19529,0.0977 0.24414,0.19531 0.0976,0.14651 0.14646,0.40693 0.14649,0.78125 -3e-5,0.4232 -0.0407,0.71617 -0.12207,0.87891 -0.0489,0.0814 -0.13837,0.1465 -0.26856,0.19531 -0.11395,0.0488 -0.52085,0.0733 -1.2207,0.0732 l -2.90527,0 c 0.91143,1.17189 1.36716,2.66928 1.36718,4.49218 -2e-5,2.08335 -0.79754,3.86557 -2.39258,5.34668 -1.59506,1.48113 -3.73536,2.22169 -6.42089,2.22168 -1.10679,1e-5 -2.23797,-0.16275 -3.39356,-0.48828 -0.71615,0.6185 -1.20443,1.16374 -1.46484,1.63574 -0.24415,0.45574 -0.36622,0.84636 -0.36621,1.17188 -10e-6,0.2767 0.1302,0.54525 0.39062,0.80566 0.27669,0.26042 0.80566,0.4476 1.58692,0.56153 0.45572,0.0651 1.59504,0.12207 3.41796,0.17089 3.35285,0.0814 5.5257,0.19532 6.51856,0.3418 1.51365,0.21159 2.71808,0.77312 3.61328,1.68457 0.91144,0.91146 1.36716,2.03451 1.36719,3.36914 -3e-5,1.83919 -0.86266,3.56445 -2.58789,5.17578 -2.53908,2.3763 -5.85126,3.56445 -9.93653,3.56446 -3.14128,-10e-6 -5.79427,-0.70802 -7.95898,-2.12403 -1.22071,-0.81381 -1.83106,-1.66016 -1.83106,-2.53906 0,-0.39063 0.0895,-0.78125 0.26856,-1.17187 0.27669,-0.60222 0.84635,-1.44044 1.70898,-2.51465 0.11393,-0.14649 0.94401,-1.02539 2.49024,-2.63672 -0.84636,-0.50456 -1.44857,-0.95215 -1.80664,-1.34278 -0.3418,-0.40689 -0.5127,-0.86262 -0.5127,-1.36718 0,-0.56966 0.22786,-1.23698 0.6836,-2.00196 0.472,-0.76496 1.54621,-1.84732 3.22265,-3.24707 m 4.24805,-13.69629 c -1.20444,3e-5 -2.21355,0.48017 -3.02734,1.44043 -0.81381,0.96031 -1.22072,2.43329 -1.22071,4.41895 -1e-5,2.57163 0.55338,4.56544 1.66016,5.98145 0.84634,1.07422 1.92056,1.61133 3.22265,1.61132 1.23697,10e-6 2.25422,-0.46385 3.05176,-1.3916 0.79751,-0.92772 1.19628,-2.38443 1.19629,-4.37012 -1e-5,-2.58787 -0.56154,-4.61423 -1.68457,-6.0791 -0.83009,-1.07419 -1.89617,-1.6113 -3.19824,-1.61133 m -4.49219,21.85059 c -0.76498,0.83008 -1.34278,1.60319 -1.7334,2.31934 -0.39063,0.71614 -0.58594,1.37532 -0.58593,1.97754 -10e-6,0.78124 0.472,1.46483 1.41601,2.05078 1.6276,1.0091 3.97948,1.51366 7.05567,1.51367 2.92967,-10e-6 5.08624,-0.52084 6.46972,-1.5625 1.39972,-1.0254 2.09959,-2.12403 2.09961,-3.2959 -2e-5,-0.84636 -0.41506,-1.44857 -1.24512,-1.80664 -0.84637,-0.35807 -2.5228,-0.56966 -5.02929,-0.63477 -3.66212,-0.0976 -6.47788,-0.28483 -8.44727,-0.56152"
         style="marker:none;font-family:Times New Roman;-inkscape-font-specification:Times New Roman"
         id="path3119" />
      <path
         d="m 809.58828,494.62094 c -0.0163,3.32032 0.78938,5.92449 2.41699,7.8125 1.6276,1.88803 3.54003,2.83204 5.73731,2.83203 1.46483,1e-5 2.73436,-0.39876 3.80859,-1.19629 1.09048,-0.81379 2.00193,-2.19726 2.73438,-4.15039 l 0.75683,0.48828 c -0.34182,2.22983 -1.33465,4.26433 -2.97851,6.10352 -1.6439,1.82292 -3.70282,2.73437 -6.17676,2.73437 -2.68556,0 -4.98862,-1.04166 -6.90918,-3.125 -1.9043,-2.0996 -2.85645,-4.91535 -2.85645,-8.44726 0,-3.82486 0.97656,-6.80337 2.92969,-8.93555 1.96939,-2.14841 4.43521,-3.22263 7.39746,-3.22265 2.5065,2e-5 4.56541,0.8301 6.17676,2.49023 1.61131,1.6439 2.41697,3.8493 2.41699,6.61621 l -15.4541,0 m 0,-1.41601 10.35156,0 c -0.0814,-1.43228 -0.25229,-2.44139 -0.51269,-3.02735 -0.40692,-0.91144 -1.01727,-1.62758 -1.83106,-2.14844 -0.79754,-0.52081 -1.63575,-0.78122 -2.51465,-0.78125 -1.35092,3e-5 -2.56348,0.529 -3.63769,1.58692 -1.05795,1.04168 -1.67644,2.49839 -1.85547,4.37012"
         style="marker:none;font-family:Times New Roman;-inkscape-font-specification:Times New Roman"
         id="path3121" />
      <path
         d="m 835.34505,490.27524 c 2.62044,-3.15753 5.11881,-4.73631 7.49512,-4.73633 1.22069,2e-5 2.27049,0.30927 3.14942,0.92773 0.87888,0.60224 1.57875,1.60321 2.09961,3.00293 0.35805,0.97658 0.53708,2.47398 0.5371,4.49219 l 0,9.5459 c -2e-5,1.41602 0.11392,2.3763 0.3418,2.88086 0.17902,0.4069 0.46385,0.72428 0.85449,0.95215 0.40688,0.22786 1.14744,0.3418 2.22168,0.34179 l 0,0.87891 -11.05957,0 0,-0.87891 0.46387,0 c 1.04165,1e-5 1.76593,-0.15462 2.17285,-0.46386 0.42316,-0.32552 0.71613,-0.79753 0.87891,-1.41602 0.0651,-0.24414 0.0976,-1.00911 0.0977,-2.29492 l 0,-9.15527 c -10e-6,-2.03449 -0.26857,-3.50747 -0.80566,-4.41895 -0.52085,-0.92771 -1.40789,-1.39158 -2.66113,-1.3916 -1.93686,2e-5 -3.86557,1.05796 -5.78614,3.17383 l 0,11.79199 c 0,1.51368 0.0895,2.44955 0.26856,2.80762 0.22786,0.472 0.5371,0.82194 0.92773,1.0498 0.4069,0.21159 1.2207,0.31739 2.44141,0.31738 l 0,0.87891 -11.05957,0 0,-0.87891 0.48828,0 c 1.13932,1e-5 1.90429,-0.28482 2.29492,-0.85449 0.4069,-0.58593 0.61035,-1.6927 0.61035,-3.32031 l 0,-8.30078 c 0,-2.68553 -0.0651,-4.32127 -0.19531,-4.90723 -0.11393,-0.58592 -0.30111,-0.98468 -0.56152,-1.19629 -0.24415,-0.21157 -0.5778,-0.31736 -1.00098,-0.31738 -0.45573,2e-5 -1.00098,0.12209 -1.63574,0.36621 l -0.36621,-0.87891 6.73828,-2.73437 1.0498,0 0,4.73633"
         style="marker:none;font-family:Times New Roman;-inkscape-font-specification:Times New Roman"
         id="path3123" />
      <path
         d="m 873.6506,500.06528 c -0.60224,2.94597 -1.78225,5.21647 -3.54004,6.81152 -1.75783,1.57878 -3.70282,2.36816 -5.83496,2.36816 -2.53907,0 -4.75261,-1.06608 -6.64063,-3.19824 -1.88802,-2.13215 -2.83203,-5.01301 -2.83203,-8.64258 0,-3.51561 1.04166,-6.37205 3.125,-8.56933 2.0996,-2.19725 4.61425,-3.29588 7.54395,-3.2959 2.19725,2e-5 4.00389,0.58596 5.41992,1.75781 1.41599,1.15562 2.124,2.36005 2.12402,3.61328 -2e-5,0.61851 -0.20347,1.12307 -0.61035,1.51368 -0.39064,0.37436 -0.94403,0.56153 -1.66016,0.56152 -0.9603,10e-6 -1.68458,-0.30923 -2.17285,-0.92774 -0.27671,-0.34178 -0.46388,-0.99282 -0.56152,-1.95312 -0.0814,-0.96027 -0.40692,-1.69269 -0.97656,-2.19727 -0.56968,-0.48826 -1.35907,-0.7324 -2.36817,-0.73242 -1.62761,2e-5 -2.93783,0.60224 -3.93066,1.80664 -1.31837,1.59507 -1.97755,3.70282 -1.97754,6.32324 -10e-6,2.66929 0.65103,5.02931 1.95312,7.08008 1.31835,2.03451 3.09244,3.05176 5.32227,3.05176 1.59504,0 3.02733,-0.54524 4.29687,-1.63574 0.89517,-0.74869 1.76594,-2.10774 2.61231,-4.07715 l 0.70801,0.3418"
         style="marker:none;font-family:Times New Roman;-inkscape-font-specification:Times New Roman"
         id="path3125" />
      <path
         d="m 881.41421,494.62094 c -0.0163,3.32032 0.78938,5.92449 2.41699,7.8125 1.62759,1.88803 3.54003,2.83204 5.7373,2.83203 1.46483,1e-5 2.73436,-0.39876 3.8086,-1.19629 1.09047,-0.81379 2.00193,-2.19726 2.73437,-4.15039 l 0.75684,0.48828 c -0.34182,2.22983 -1.33466,4.26433 -2.97852,6.10352 -1.64389,1.82292 -3.70281,2.73437 -6.17675,2.73437 -2.68556,0 -4.98862,-1.04166 -6.90918,-3.125 -1.9043,-2.0996 -2.85645,-4.91535 -2.85645,-8.44726 0,-3.82486 0.97656,-6.80337 2.92969,-8.93555 1.96939,-2.14841 4.43521,-3.22263 7.39746,-3.22265 2.50649,2e-5 4.56541,0.8301 6.17676,2.49023 1.6113,1.6439 2.41697,3.8493 2.41699,6.61621 l -15.4541,0 m 0,-1.41601 10.35156,0 c -0.0814,-1.43228 -0.25229,-2.44139 -0.5127,-3.02735 -0.40691,-0.91144 -1.01726,-1.62758 -1.83105,-2.14844 -0.79754,-0.52081 -1.63575,-0.78122 -2.51465,-0.78125 -1.35092,3e-5 -2.56348,0.529 -3.63769,1.58692 -1.05795,1.04168 -1.67644,2.49839 -1.85547,4.37012"
         style="marker:none;font-family:Times New Roman;-inkscape-font-specification:Times New Roman"
         id="path3127" />
    </g>
  </g>
</svg>
